0
SECTION
2
HEADER
9
$INSUNITS
70
4
9
$ACADVER
1
AC1014
9
$HANDSEED
5
FFFF
0
ENDSEC
0
SECTION
2
TABLES
0
TABLE
2
VPORT
5
8
100
AcDbSymbolTable
0
ENDTAB
0
TABLE
2
LTYPE
5
5
100
AcDbSymbolTable
0
LTYPE
5
14
100
AcDbSymbolTableRecord
100
AcDbLinetypeTableRecord
2
BYBLOCK
70
0
0
LTYPE
5
15
100
AcDbSymbolTableRecord
100
AcDbLinetypeTableRecord
2
BYLAYER
70
0
0
ENDTAB
0
TABLE
2
LAYER
5
2
100
AcDbSymbolTable
70
2
0
LAYER
5
50
100
AcDbSymbolTableRecord
100
AcDbLayerTableRecord
2
0
70
0
6
CONTINUOUS
0
ENDTAB
0
TABLE
2
STYLE
5
3
100
AcDbSymbolTable
70
1
0
STYLE
5
11
100
AcDbSymbolTableRecord
100
AcDbTextStyleTableRecord
2
STANDARD
70
0
0
ENDTAB
0
TABLE
2
VIEW
5
6
100
AcDbSymbolTable
70
0
0
ENDTAB
0
TABLE
2
UCS
5
7
100
AcDbSymbolTable
70
0
0
ENDTAB
0
TABLE
2
APPID
5
9
100
AcDbSymbolTable
70
2
0
APPID
5
12
100
AcDbSymbolTableRecord
100
AcDbRegAppTableRecord
2
ACAD
70
0
0
ENDTAB
0
TABLE
2
DIMSTYLE
5
A
100
AcDbSymbolTable
70
1
0
ENDTAB
0
TABLE
2
BLOCK_RECORD
5
1
100
AcDbSymbolTable
70
1
0
BLOCK_RECORD
5
1F
100
AcDbSymbolTableRecord
100
AcDbBlockTableRecord
2
*MODEL_SPACE
0
BLOCK_RECORD
5
1B
100
AcDbSymbolTableRecord
100
AcDbBlockTableRecord
2
*PAPER_SPACE
0
ENDTAB
0
ENDSEC
0
SECTION
2
BLOCKS
0
BLOCK
5
20
100
AcDbEntity
100
AcDbBlockBegin
2
*MODEL_SPACE
0
ENDBLK
5
21
100
AcDbEntity
100
AcDbBlockEnd
0
BLOCK
5
1C
100
AcDbEntity
100
AcDbBlockBegin
2
*PAPER_SPACE
0
ENDBLK
5
1D
100
AcDbEntity
100
AcDbBlockEnd
0
ENDSEC
0
SECTION
2
ENTITIES
0
CIRCLE
5
100
100
AcDbEntity
8
0
100
AcDbCircle
10
0
20
0
30
0
40
10.75
210
0
220
0
230
1
0
LWPOLYLINE
5
101
100
AcDbEntity
8
0
100
AcDbPolyline
90
8
70
1
43
0.0
10
-19.475000000000001
20
-3.0500000000000584
42
-2.4142135623731025
10
-19.850000000000001
20
-2.6750000000000576
10
-19.850000000000001
20
2.6749999999999834
42
-2.4142135623731025
10
-19.475000000000001
20
3.0499999999999874
10
-12.524999999999999
20
3.0499999999999847
42
-2.4142135623731025
10
-12.15
20
2.6749999999999838
10
-12.15
20
-2.8563068228783681
42
-5.2868318762114175
10
-12.343693177121688
20
-3.0500000000000558
0
LWPOLYLINE
5
102
100
AcDbEntity
8
0
100
AcDbPolyline
90
8
70
1
43
0.0
10
19.850000000000001
20
-2.6750000000000638
42
-2.4142135623730949
10
19.475000000000001
20
-3.0500000000000629
10
12.343693177121688
20
-3.0500000000000602
42
-5.2868318762113589
10
12.149999999999999
20
-2.8563068228783717
10
12.15
20
2.6749999999999781
42
-2.4142135623731025
10
12.525000000000002
20
3.0499999999999816
10
19.475000000000001
20
3.0499999999999829
42
-2.4142135623730949
10
19.850000000000001
20
2.6749999999999838
0
LWPOLYLINE
5
103
100
AcDbEntity
8
0
100
AcDbPolyline
90
24
70
1
43
0.0
10
23.999999999999993
20
-13.500000000000075
42
-0.41421356237309453
10
21.499999999999993
20
-16.000000000000071
10
19.849999999999998
20
-16.000000000000071
10
19.849999999999998
20
-9.6000000000000654
10
12.149999999999997
20
-9.6000000000000636
10
12.149999999999997
20
-16.000000000000075
10
-12.15
20
-16.000000000000071
10
-12.15
20
-9.6000000000000618
10
-19.850000000000001
20
-9.6000000000000618
10
-19.850000000000001
20
-16.000000000000068
10
-21.500000000000004
20
-16.000000000000068
42
-0.41421356237309531
10
-24
20
-13.500000000000069
10
-24
20
13.49999999999995
42
-0.41421356237309503
10
-21.5
20
15.99999999999995
10
-19.850000000000016
20
15.99999999999995
10
-19.850000000000009
20
9.5999999999999925
10
-12.150000000000016
20
9.5999999999999979
10
-12.15000000000002
20
15.999999999999952
10
12.150000000000025
20
15.999999999999947
10
12.150000000000023
20
9.5999999999999961
10
19.850000000000012
20
9.5999999999999872
10
19.850000000000023
20
15.999999999999945
10
21.5
20
15.999999999999945
42
-0.41421356237309503
10
24
20
13.499999999999945
0
ENDSEC
0
SECTION
2
OBJECTS
0
DICTIONARY
5
C
100
AcDbDictionary
3
ACAD_GROUP
350
D
3
ACAD_MLINESTYLE
350
17
0
DICTIONARY
5
D
100
AcDbDictionary
0
DICTIONARY
5
1A
330
C
100
AcDbDictionary
0
DICTIONARY
5
17
100
AcDbDictionary
0
ENDSEC
0
EOF
