0
SECTION
2
HEADER
9
$INSUNITS
70
4
9
$ACADVER
1
AC1014
9
$HANDSEED
5
FFFF
0
ENDSEC
0
SECTION
2
TABLES
0
TABLE
2
VPORT
5
8
100
AcDbSymbolTable
0
ENDTAB
0
TABLE
2
LTYPE
5
5
100
AcDbSymbolTable
0
LTYPE
5
14
100
AcDbSymbolTableRecord
100
AcDbLinetypeTableRecord
2
BYBLOCK
70
0
0
LTYPE
5
15
100
AcDbSymbolTableRecord
100
AcDbLinetypeTableRecord
2
BYLAYER
70
0
0
ENDTAB
0
TABLE
2
LAYER
5
2
100
AcDbSymbolTable
70
2
0
LAYER
5
50
100
AcDbSymbolTableRecord
100
AcDbLayerTableRecord
2
0
70
0
6
CONTINUOUS
0
ENDTAB
0
TABLE
2
STYLE
5
3
100
AcDbSymbolTable
70
1
0
STYLE
5
11
100
AcDbSymbolTableRecord
100
AcDbTextStyleTableRecord
2
STANDARD
70
0
0
ENDTAB
0
TABLE
2
VIEW
5
6
100
AcDbSymbolTable
70
0
0
ENDTAB
0
TABLE
2
UCS
5
7
100
AcDbSymbolTable
70
0
0
ENDTAB
0
TABLE
2
APPID
5
9
100
AcDbSymbolTable
70
2
0
APPID
5
12
100
AcDbSymbolTableRecord
100
AcDbRegAppTableRecord
2
ACAD
70
0
0
ENDTAB
0
TABLE
2
DIMSTYLE
5
A
100
AcDbSymbolTable
70
1
0
ENDTAB
0
TABLE
2
BLOCK_RECORD
5
1
100
AcDbSymbolTable
70
1
0
BLOCK_RECORD
5
1F
100
AcDbSymbolTableRecord
100
AcDbBlockTableRecord
2
*MODEL_SPACE
0
BLOCK_RECORD
5
1B
100
AcDbSymbolTableRecord
100
AcDbBlockTableRecord
2
*PAPER_SPACE
0
ENDTAB
0
ENDSEC
0
SECTION
2
BLOCKS
0
BLOCK
5
20
100
AcDbEntity
100
AcDbBlockBegin
2
*MODEL_SPACE
0
ENDBLK
5
21
100
AcDbEntity
100
AcDbBlockEnd
0
BLOCK
5
1C
100
AcDbEntity
100
AcDbBlockBegin
2
*PAPER_SPACE
0
ENDBLK
5
1D
100
AcDbEntity
100
AcDbBlockEnd
0
ENDSEC
0
SECTION
2
ENTITIES
0
CIRCLE
5
100
100
AcDbEntity
8
0
100
AcDbCircle
10
0
20
-7.9009413020139563e-17
30
0
40
10.75
210
0
220
0
230
1
0
LWPOLYLINE
5
101
100
AcDbEntity
8
0
100
AcDbPolyline
90
8
70
1
43
0.0
10
16.150000000000013
20
2.856306822878254
42
-5.286831876211604
10
16.34369317712169
20
3.049999999999939
10
19.65630682287831
20
3.049999999999939
42
-5.2868318762112825
10
19.850000000000001
20
2.8563068228782478
10
19.850000000000001
20
-2.8563068228783695
42
-5.2868318762113269
10
19.65630682287831
20
-3.0500000000000598
10
16.343693177121693
20
-3.0500000000000589
42
-5.2868318762115267
10
16.150000000000009
20
-2.8563068228783721
0
LWPOLYLINE
5
102
100
AcDbEntity
8
0
100
AcDbPolyline
90
8
70
1
43
0.0
10
-16.150000000000009
20
-2.8563068228783739
42
-5.2868318762115392
10
-16.34369317712169
20
-3.0500000000000593
10
-19.65630682287831
20
-3.0500000000000593
42
-5.2868318762112949
10
-19.850000000000001
20
-2.856306822878369
10
-19.850000000000001
20
2.8563068228782478
42
-5.2868318762112949
10
-19.65630682287831
20
3.0499999999999394
10
-16.34369317712169
20
3.049999999999939
42
-5.2868318762116102
10
-16.150000000000013
20
2.8563068228782544
0
LWPOLYLINE
5
103
100
AcDbEntity
8
0
100
AcDbPolyline
90
24
70
1
43
0.0
10
-21.500000000000014
20
-16.000000000000021
42
-0.41421356237309531
10
-24.000000000000007
20
-13.500000000000025
10
-24.000000000000039
20
13.499999999999972
42
-0.41421356237309453
10
-21.500000000000039
20
15.999999999999975
10
-19.850000000000001
20
15.999999999999975
10
-19.850000000000001
20
9.5999999999999392
10
-16.150000000000009
20
9.5999999999999321
10
-16.150000000000009
20
15.999999999999977
10
16.150000000000009
20
15.999999999999975
10
16.150000000000009
20
9.5999999999999339
10
19.850000000000001
20
9.5999999999999392
10
19.850000000000001
20
15.999999999999975
10
21.500000000000039
20
15.99999999999997
42
-0.41421356237309503
10
24.000000000000036
20
13.499999999999975
10
24.000000000000004
20
-13.500000000000028
42
-0.41421356237309503
10
21.500000000000004
20
-16.000000000000025
10
19.850000000000001
20
-16.000000000000025
10
19.850000000000001
20
-9.6000000000000547
10
16.149999999999999
20
-9.6000000000000512
10
16.149999999999999
20
-16.000000000000021
10
-16.149999999999999
20
-16.000000000000021
10
-16.149999999999999
20
-9.6000000000000512
10
-19.850000000000001
20
-9.6000000000000547
10
-19.850000000000001
20
-16.000000000000025
0
ENDSEC
0
SECTION
2
OBJECTS
0
DICTIONARY
5
C
100
AcDbDictionary
3
ACAD_GROUP
350
D
3
ACAD_MLINESTYLE
350
17
0
DICTIONARY
5
D
100
AcDbDictionary
0
DICTIONARY
5
1A
330
C
100
AcDbDictionary
0
DICTIONARY
5
17
100
AcDbDictionary
0
ENDSEC
0
EOF
