0
SECTION
2
HEADER
9
$INSUNITS
70
4
9
$ACADVER
1
AC1014
9
$HANDSEED
5
FFFF
0
ENDSEC
0
SECTION
2
TABLES
0
TABLE
2
VPORT
5
8
100
AcDbSymbolTable
0
ENDTAB
0
TABLE
2
LTYPE
5
5
100
AcDbSymbolTable
0
LTYPE
5
14
100
AcDbSymbolTableRecord
100
AcDbLinetypeTableRecord
2
BYBLOCK
70
0
0
LTYPE
5
15
100
AcDbSymbolTableRecord
100
AcDbLinetypeTableRecord
2
BYLAYER
70
0
0
ENDTAB
0
TABLE
2
LAYER
5
2
100
AcDbSymbolTable
70
2
0
LAYER
5
50
100
AcDbSymbolTableRecord
100
AcDbLayerTableRecord
2
0
70
0
6
CONTINUOUS
0
ENDTAB
0
TABLE
2
STYLE
5
3
100
AcDbSymbolTable
70
1
0
STYLE
5
11
100
AcDbSymbolTableRecord
100
AcDbTextStyleTableRecord
2
STANDARD
70
0
0
ENDTAB
0
TABLE
2
VIEW
5
6
100
AcDbSymbolTable
70
0
0
ENDTAB
0
TABLE
2
UCS
5
7
100
AcDbSymbolTable
70
0
0
ENDTAB
0
TABLE
2
APPID
5
9
100
AcDbSymbolTable
70
2
0
APPID
5
12
100
AcDbSymbolTableRecord
100
AcDbRegAppTableRecord
2
ACAD
70
0
0
ENDTAB
0
TABLE
2
DIMSTYLE
5
A
100
AcDbSymbolTable
70
1
0
ENDTAB
0
TABLE
2
BLOCK_RECORD
5
1
100
AcDbSymbolTable
70
1
0
BLOCK_RECORD
5
1F
100
AcDbSymbolTableRecord
100
AcDbBlockTableRecord
2
*MODEL_SPACE
0
BLOCK_RECORD
5
1B
100
AcDbSymbolTableRecord
100
AcDbBlockTableRecord
2
*PAPER_SPACE
0
ENDTAB
0
ENDSEC
0
SECTION
2
BLOCKS
0
BLOCK
5
20
100
AcDbEntity
100
AcDbBlockBegin
2
*MODEL_SPACE
0
ENDBLK
5
21
100
AcDbEntity
100
AcDbBlockEnd
0
BLOCK
5
1C
100
AcDbEntity
100
AcDbBlockBegin
2
*PAPER_SPACE
0
ENDBLK
5
1D
100
AcDbEntity
100
AcDbBlockEnd
0
ENDSEC
0
SECTION
2
ENTITIES
0
LWPOLYLINE
5
100
100
AcDbEntity
8
0
100
AcDbPolyline
90
44
70
1
43
0.0
10
34
20
-11.999999999999925
10
30.816666666666666
20
-11.999999999999925
10
30.816666666666666
20
-15.999999999999925
10
27.183333333333355
20
-15.999999999999927
10
27.183333333333355
20
-11.999999999999925
10
24.149999999999999
20
-11.999999999999925
10
24.149999999999999
20
-15.999999999999927
10
19.849999999999998
20
-16.000000000000085
10
19.849999999999998
20
-9.5999999999998131
10
12.149999999999995
20
-9.5999999999998114
10
12.149999999999991
20
-16.000000000000089
10
-12.149999999999997
20
-16.000000000000082
10
-12.149999999999999
20
-9.5999999999998096
10
-19.850000000000001
20
-9.5999999999998096
10
-19.850000000000001
20
-16.000000000000082
10
-24.149999999999999
20
-15.999999999999927
10
-24.149999999999999
20
-11.999999999999925
10
-27.183333333333355
20
-11.999999999999925
10
-27.183333333333355
20
-15.999999999999927
10
-30.816666666666666
20
-15.999999999999925
10
-30.816666666666666
20
-11.999999999999925
10
-34
20
-11.999999999999925
10
-34
20
11.999999999999925
10
-30.816666666666666
20
11.999999999999925
10
-30.816666666666666
20
15.999999999999925
10
-27.183333333333355
20
15.999999999999927
10
-27.183333333333355
20
11.999999999999925
10
-24.149999999999999
20
11.999999999999925
10
-24.149999999999999
20
15.999999999999927
10
-19.850000000000023
20
15.999999999999925
10
-19.850000000000012
20
9.6000000000000227
10
-12.14999999999999
20
9.6000000000000281
10
-12.149999999999988
20
15.999999999999929
10
12.149999999999991
20
15.999999999999925
10
12.149999999999997
20
9.6000000000000263
10
19.850000000000016
20
9.6000000000000174
10
19.850000000000026
20
15.999999999999922
10
24.149999999999999
20
15.999999999999927
10
24.149999999999999
20
11.999999999999925
10
27.183333333333355
20
11.999999999999925
10
27.183333333333355
20
15.999999999999927
10
30.816666666666666
20
15.999999999999925
10
30.816666666666666
20
11.999999999999925
10
34
20
11.999999999999925
0
LWPOLYLINE
5
101
100
AcDbEntity
8
0
100
AcDbPolyline
90
8
70
1
43
0.0
10
-19.475000000000001
20
-3.0500000000000114
42
-2.4142135623731025
10
-19.850000000000001
20
-2.6750000000000105
10
-19.850000000000001
20
2.6750000000000296
42
-2.4142135623731025
10
-19.475000000000001
20
3.0500000000000331
10
-12.524999999999999
20
3.0500000000000309
42
-2.4142135623731025
10
-12.15
20
2.67500000000003
10
-12.15
20
-2.8563068228783237
42
-5.2868318762113917
10
-12.34369317712169
20
-3.0500000000000114
0
CIRCLE
5
102
100
AcDbEntity
8
0
100
AcDbCircle
10
0
20
0
30
0
40
10.75
210
0
220
0
230
1
0
LWPOLYLINE
5
103
100
AcDbEntity
8
0
100
AcDbPolyline
90
8
70
1
43
0.0
10
19.850000000000001
20
-2.6750000000000176
42
-2.4142135623730949
10
19.475000000000001
20
-3.0500000000000158
10
12.343693177121688
20
-3.0500000000000131
42
-5.2868318762114237
10
12.15
20
-2.8563068228783273
10
12.15
20
2.6750000000000238
42
-2.4142135623731025
10
12.525000000000002
20
3.0500000000000278
10
19.475000000000001
20
3.0500000000000287
42
-2.4142135623730918
10
19.850000000000001
20
2.67500000000003
0
ENDSEC
0
SECTION
2
OBJECTS
0
DICTIONARY
5
C
100
AcDbDictionary
3
ACAD_GROUP
350
D
3
ACAD_MLINESTYLE
350
17
0
DICTIONARY
5
D
100
AcDbDictionary
0
DICTIONARY
5
1A
330
C
100
AcDbDictionary
0
DICTIONARY
5
17
100
AcDbDictionary
0
ENDSEC
0
EOF
