0
SECTION
2
HEADER
9
$INSUNITS
70
4
9
$ACADVER
1
AC1014
9
$HANDSEED
5
FFFF
0
ENDSEC
0
SECTION
2
TABLES
0
TABLE
2
VPORT
5
8
100
AcDbSymbolTable
0
ENDTAB
0
TABLE
2
LTYPE
5
5
100
AcDbSymbolTable
0
LTYPE
5
14
100
AcDbSymbolTableRecord
100
AcDbLinetypeTableRecord
2
BYBLOCK
70
0
0
LTYPE
5
15
100
AcDbSymbolTableRecord
100
AcDbLinetypeTableRecord
2
BYLAYER
70
0
0
ENDTAB
0
TABLE
2
LAYER
5
2
100
AcDbSymbolTable
70
2
0
LAYER
5
50
100
AcDbSymbolTableRecord
100
AcDbLayerTableRecord
2
0
70
0
6
CONTINUOUS
0
ENDTAB
0
TABLE
2
STYLE
5
3
100
AcDbSymbolTable
70
1
0
STYLE
5
11
100
AcDbSymbolTableRecord
100
AcDbTextStyleTableRecord
2
STANDARD
70
0
0
ENDTAB
0
TABLE
2
VIEW
5
6
100
AcDbSymbolTable
70
0
0
ENDTAB
0
TABLE
2
UCS
5
7
100
AcDbSymbolTable
70
0
0
ENDTAB
0
TABLE
2
APPID
5
9
100
AcDbSymbolTable
70
2
0
APPID
5
12
100
AcDbSymbolTableRecord
100
AcDbRegAppTableRecord
2
ACAD
70
0
0
ENDTAB
0
TABLE
2
DIMSTYLE
5
A
100
AcDbSymbolTable
70
1
0
ENDTAB
0
TABLE
2
BLOCK_RECORD
5
1
100
AcDbSymbolTable
70
1
0
BLOCK_RECORD
5
1F
100
AcDbSymbolTableRecord
100
AcDbBlockTableRecord
2
*MODEL_SPACE
0
BLOCK_RECORD
5
1B
100
AcDbSymbolTableRecord
100
AcDbBlockTableRecord
2
*PAPER_SPACE
0
ENDTAB
0
ENDSEC
0
SECTION
2
BLOCKS
0
BLOCK
5
20
100
AcDbEntity
100
AcDbBlockBegin
2
*MODEL_SPACE
0
ENDBLK
5
21
100
AcDbEntity
100
AcDbBlockEnd
0
BLOCK
5
1C
100
AcDbEntity
100
AcDbBlockBegin
2
*PAPER_SPACE
0
ENDBLK
5
1D
100
AcDbEntity
100
AcDbBlockEnd
0
ENDSEC
0
SECTION
2
ENTITIES
0
CIRCLE
5
100
100
AcDbEntity
8
0
100
AcDbCircle
10
78.177522122265501
20
-76.454199208782711
30
4.4408920985006262e-15
40
1.4999999999999996
210
-0
220
0
230
1
0
LWPOLYLINE
5
101
100
AcDbEntity
8
0
100
AcDbPolyline
90
8
70
1
43
0.0
10
72.48550003969568
20
-80.829242434629847
42
-2.4142135623731251
10
73.014824877209051
20
-80.796604781658971
10
75.225210673113764
20
-82.750241040859407
42
-2.4142135623730674
10
75.25784832608467
20
-83.279565878372765
10
70.655213749324332
20
-88.487084956860102
42
-2.4142135623732131
10
70.125888911810975
20
-88.519722609831007
10
67.915503115906233
20
-86.566086350630584
42
-2.4142135623729537
10
67.882865462935357
20
-86.036761513117199
0
LWPOLYLINE
5
102
100
AcDbEntity
8
0
100
AcDbPolyline
90
8
70
1
43
0.0
10
40.78082750263836
20
-107.23278687702083
42
-2.4142135623730039
10
41.28669109897281
20
-107.39201005970349
10
42.650143392669897
20
-110.00801805717063
42
-2.4142135623731495
10
42.490920209987266
20
-110.51388165350508
10
36.327782724429014
20
-113.72608282001178
42
-2.4142135623731114
10
35.821919128094578
20
-113.56685963732913
10
34.458466834397477
20
-110.95085163986198
42
-2.4142135623730931
10
34.617690017080129
20
-110.44498804352754
0
CIRCLE
5
103
100
AcDbEntity
8
0
100
AcDbCircle
10
28.999998014415453
20
-114.91507251473055
30
8.8817841970012523e-15
40
1.4999999999999996
210
-0
220
0
230
1
0
LWPOLYLINE
5
104
100
AcDbEntity
8
0
100
AcDbPolyline
90
8
70
1
43
0.0
10
60.189995960572361
20
-97.875743645658147
42
-2.4142135623731265
10
60.125625303107071
20
-98.402152629678625
10
54.651067292005386
20
-102.68370778909002
42
-2.4142135623731265
10
54.124658307984916
20
-102.61933713162472
10
52.307307556867855
20
-100.29560387511397
42
-2.4142135623731313
10
52.37167821433313
20
-99.769194891093477
10
57.846236225434822
20
-95.487639731682066
42
-2.4142135623731646
10
58.372645209455285
20
-95.55201038914737
0
LWPOLYLINE
5
105
100
AcDbEntity
8
0
100
AcDbPolyline
90
4
70
1
43
0.0
10
74.143837465656475
20
-73.49964541996161
42
-0.99999999999999989
10
82.211206778874541
20
-79.40875299760377
42
-0.13831675995606438
10
30.895529448943808
20
-119.54183818641906
42
-0.99999999999999989
10
27.104466579887099
20
-110.28830684304208
42
0.13831675995606404
0
ENDSEC
0
SECTION
2
OBJECTS
0
DICTIONARY
5
C
100
AcDbDictionary
3
ACAD_GROUP
350
D
3
ACAD_MLINESTYLE
350
17
0
DICTIONARY
5
D
100
AcDbDictionary
0
DICTIONARY
5
1A
330
C
100
AcDbDictionary
0
DICTIONARY
5
17
100
AcDbDictionary
0
ENDSEC
0
EOF
