0
SECTION
2
HEADER
9
$INSUNITS
70
4
9
$ACADVER
1
AC1014
9
$HANDSEED
5
FFFF
0
ENDSEC
0
SECTION
2
TABLES
0
TABLE
2
VPORT
5
8
100
AcDbSymbolTable
0
ENDTAB
0
TABLE
2
LTYPE
5
5
100
AcDbSymbolTable
0
LTYPE
5
14
100
AcDbSymbolTableRecord
100
AcDbLinetypeTableRecord
2
BYBLOCK
70
0
0
LTYPE
5
15
100
AcDbSymbolTableRecord
100
AcDbLinetypeTableRecord
2
BYLAYER
70
0
0
ENDTAB
0
TABLE
2
LAYER
5
2
100
AcDbSymbolTable
70
2
0
LAYER
5
50
100
AcDbSymbolTableRecord
100
AcDbLayerTableRecord
2
0
70
0
6
CONTINUOUS
0
ENDTAB
0
TABLE
2
STYLE
5
3
100
AcDbSymbolTable
70
1
0
STYLE
5
11
100
AcDbSymbolTableRecord
100
AcDbTextStyleTableRecord
2
STANDARD
70
0
0
ENDTAB
0
TABLE
2
VIEW
5
6
100
AcDbSymbolTable
70
0
0
ENDTAB
0
TABLE
2
UCS
5
7
100
AcDbSymbolTable
70
0
0
ENDTAB
0
TABLE
2
APPID
5
9
100
AcDbSymbolTable
70
2
0
APPID
5
12
100
AcDbSymbolTableRecord
100
AcDbRegAppTableRecord
2
ACAD
70
0
0
ENDTAB
0
TABLE
2
DIMSTYLE
5
A
100
AcDbSymbolTable
70
1
0
ENDTAB
0
TABLE
2
BLOCK_RECORD
5
1
100
AcDbSymbolTable
70
1
0
BLOCK_RECORD
5
1F
100
AcDbSymbolTableRecord
100
AcDbBlockTableRecord
2
*MODEL_SPACE
0
BLOCK_RECORD
5
1B
100
AcDbSymbolTableRecord
100
AcDbBlockTableRecord
2
*PAPER_SPACE
0
ENDTAB
0
ENDSEC
0
SECTION
2
BLOCKS
0
BLOCK
5
20
100
AcDbEntity
100
AcDbBlockBegin
2
*MODEL_SPACE
0
ENDBLK
5
21
100
AcDbEntity
100
AcDbBlockEnd
0
BLOCK
5
1C
100
AcDbEntity
100
AcDbBlockBegin
2
*PAPER_SPACE
0
ENDBLK
5
1D
100
AcDbEntity
100
AcDbBlockEnd
0
ENDSEC
0
SECTION
2
ENTITIES
0
LWPOLYLINE
5
100
100
AcDbEntity
8
0
100
AcDbPolyline
90
6
70
1
43
0.0
10
29.125298494297596
20
108.63570770063616
42
-0.40771916757730031
10
26.117007013722514
20
106.85458317098599
42
0.13713743123111263
10
-33.077637945470045
20
104.90886458230484
42
-0.99999999999999989
10
-36.084695940512702
20
114.44603408978725
42
-0.13737834868518844
10
28.60152409126465
20
116.54163556281851
42
-0.42045962493966182
10
30.420382145384078
20
113.4662960976906
0
CIRCLE
5
101
100
AcDbEntity
8
0
100
AcDbCircle
10
-34.581166942991388
20
109.67744933604607
30
0
40
1.4999999999999991
210
0
220
-0
230
1
0
LWPOLYLINE
5
102
100
AcDbEntity
8
0
100
AcDbPolyline
90
8
70
1
43
0.0
10
19.477709648735072
20
111.51509741662736
42
-2.4142135623732162
10
19.18628850519751
20
111.95818173941392
10
19.782830343577022
20
114.84723657362231
42
-2.4142135623731189
10
20.225914666363622
20
115.13865771715986
10
27.032331987634212
20
113.7332455894522
42
-2.414213562373166
10
27.323753131171774
20
113.29016126666561
10
26.727211292792251
20
110.40110643245725
42
-2.4142135623730674
10
26.284126970005659
20
110.10968528891966
0
LWPOLYLINE
5
103
100
AcDbEntity
8
0
100
AcDbPolyline
90
8
70
1
43
0.0
10
-26.284126970005669
20
110.10968528891968
42
-2.4142135623733205
10
-26.727211292792266
20
110.40110643245723
10
-27.323753131171777
20
113.29016126666559
42
-2.4142135623730354
10
-27.032331987634212
20
113.7332455894522
10
-20.225914666363607
20
115.13865771715986
42
-2.4142135623731464
10
-19.782830343577025
20
114.84723657362231
10
-19.18628850519752
20
111.95818173941393
42
-2.4142135623731571
10
-19.47770964873509
20
111.51509741662734
0
LWPOLYLINE
5
104
100
AcDbEntity
8
0
100
AcDbPolyline
90
8
70
1
43
0.0
10
-3.850000000000005
20
116.47500000000139
42
-2.4142135623731433
10
-3.475000000000005
20
116.85000000000137
10
3.4749999999999739
20
116.85000000000137
42
-2.4142135623731433
10
3.8499999999999952
20
116.47500000000137
10
3.8499999999999934
20
113.5250000000014
42
-2.4142135623730279
10
3.4749999999999948
20
113.15000000000138
10
-3.4750000000000281
20
113.15000000000138
42
-2.4142135623730221
10
-3.850000000000005
20
113.52500000000137
0
ENDSEC
0
SECTION
2
OBJECTS
0
DICTIONARY
5
C
100
AcDbDictionary
3
ACAD_GROUP
350
D
3
ACAD_MLINESTYLE
350
17
0
DICTIONARY
5
D
100
AcDbDictionary
0
DICTIONARY
5
1A
330
C
100
AcDbDictionary
0
DICTIONARY
5
17
100
AcDbDictionary
0
ENDSEC
0
EOF
