0
SECTION
2
HEADER
9
$INSUNITS
70
4
9
$ACADVER
1
AC1014
9
$HANDSEED
5
FFFF
0
ENDSEC
0
SECTION
2
TABLES
0
TABLE
2
VPORT
5
8
100
AcDbSymbolTable
0
ENDTAB
0
TABLE
2
LTYPE
5
5
100
AcDbSymbolTable
0
LTYPE
5
14
100
AcDbSymbolTableRecord
100
AcDbLinetypeTableRecord
2
BYBLOCK
70
0
0
LTYPE
5
15
100
AcDbSymbolTableRecord
100
AcDbLinetypeTableRecord
2
BYLAYER
70
0
0
ENDTAB
0
TABLE
2
LAYER
5
2
100
AcDbSymbolTable
70
2
0
LAYER
5
50
100
AcDbSymbolTableRecord
100
AcDbLayerTableRecord
2
0
70
0
6
CONTINUOUS
0
ENDTAB
0
TABLE
2
STYLE
5
3
100
AcDbSymbolTable
70
1
0
STYLE
5
11
100
AcDbSymbolTableRecord
100
AcDbTextStyleTableRecord
2
STANDARD
70
0
0
ENDTAB
0
TABLE
2
VIEW
5
6
100
AcDbSymbolTable
70
0
0
ENDTAB
0
TABLE
2
UCS
5
7
100
AcDbSymbolTable
70
0
0
ENDTAB
0
TABLE
2
APPID
5
9
100
AcDbSymbolTable
70
2
0
APPID
5
12
100
AcDbSymbolTableRecord
100
AcDbRegAppTableRecord
2
ACAD
70
0
0
ENDTAB
0
TABLE
2
DIMSTYLE
5
A
100
AcDbSymbolTable
70
1
0
ENDTAB
0
TABLE
2
BLOCK_RECORD
5
1
100
AcDbSymbolTable
70
1
0
BLOCK_RECORD
5
1F
100
AcDbSymbolTableRecord
100
AcDbBlockTableRecord
2
*MODEL_SPACE
0
BLOCK_RECORD
5
1B
100
AcDbSymbolTableRecord
100
AcDbBlockTableRecord
2
*PAPER_SPACE
0
ENDTAB
0
ENDSEC
0
SECTION
2
BLOCKS
0
BLOCK
5
20
100
AcDbEntity
100
AcDbBlockBegin
2
*MODEL_SPACE
0
ENDBLK
5
21
100
AcDbEntity
100
AcDbBlockEnd
0
BLOCK
5
1C
100
AcDbEntity
100
AcDbBlockBegin
2
*PAPER_SPACE
0
ENDBLK
5
1D
100
AcDbEntity
100
AcDbBlockEnd
0
ENDSEC
0
SECTION
2
ENTITIES
0
CIRCLE
5
100
100
AcDbEntity
8
0
100
AcDbCircle
10
-28.999998014415432
20
-114.91507284096363
30
0
40
1.9499999999999966
210
0
220
-0
230
1
0
LWPOLYLINE
5
101
100
AcDbEntity
8
0
100
AcDbPolyline
90
8
70
1
43
0.0
10
-34.617690017080122
20
-110.44498836976061
42
-2.4142135623731402
10
-34.458466834397477
20
-110.95085196609503
10
-35.821919128094557
20
-113.56685996356219
42
-2.4142135623730767
10
-36.327782724428992
20
-113.72608314624485
10
-42.490920209987202
20
-110.5138819797382
42
-2.4142135623730385
10
-42.650143392669861
20
-110.00801838340372
10
-41.286691098972781
20
-107.3920103859366
42
-2.4142135623731478
10
-40.780827502638346
20
-107.23278720325393
0
LWPOLYLINE
5
102
100
AcDbEntity
8
0
100
AcDbPolyline
90
8
70
1
43
0.0
10
-67.882865462935271
20
-86.036761839350348
42
-2.4142135623730949
10
-67.915503115906148
20
-86.566086676863719
10
-70.12588891181089
20
-88.519722936064156
42
-2.4142135623731553
10
-70.655213749324247
20
-88.487085283093279
10
-75.257848326084556
20
-83.279566204605942
42
-2.4142135623730843
10
-75.225210673113708
20
-82.750241367092542
10
-73.01482487720898
20
-80.796605107892134
42
-2.4142135623732055
10
-72.485500039695623
20
-80.829242760863011
0
CIRCLE
5
103
100
AcDbEntity
8
0
100
AcDbCircle
10
-78.177522122265358
20
-76.454199535015874
30
4.4408920985006262e-15
40
1.9499999999999966
210
0
220
-0
230
1
0
LWPOLYLINE
5
104
100
AcDbEntity
8
0
100
AcDbPolyline
90
8
70
1
43
0.0
10
-54.124658307984859
20
-102.61933745785782
42
-2.4142135623730629
10
-54.651067292005351
20
-102.68370811532313
10
-60.125625303106993
20
-98.40215295591176
42
-2.4142135623730843
10
-60.189995960572311
20
-97.875743971891254
10
-58.372645209455243
20
-95.55201071538049
42
-2.4142135623730705
10
-57.846236225434751
20
-95.4876400579152
10
-52.371678214333087
20
-99.769195217326569
42
-2.4142135623730629
10
-52.307307556867777
20
-100.29560420134706
0
LWPOLYLINE
5
105
100
AcDbEntity
8
0
100
AcDbPolyline
90
4
70
1
43
0.0
10
-27.104466579886783
20
-110.28830716927527
42
-0.99999999999999989
10
-30.895529448944067
20
-119.54183851265198
42
-0.13831675995605805
10
-82.211206778874057
20
-79.408753323837374
42
-0.99999999999999989
10
-74.143837465656659
20
-73.499645746194375
42
0.1383167599560591
0
ENDSEC
0
SECTION
2
OBJECTS
0
DICTIONARY
5
C
100
AcDbDictionary
3
ACAD_GROUP
350
D
3
ACAD_MLINESTYLE
350
17
0
DICTIONARY
5
D
100
AcDbDictionary
0
DICTIONARY
5
1A
330
C
100
AcDbDictionary
0
DICTIONARY
5
17
100
AcDbDictionary
0
ENDSEC
0
EOF
