0
SECTION
2
HEADER
9
$INSUNITS
70
4
9
$ACADVER
1
AC1014
9
$HANDSEED
5
FFFF
0
ENDSEC
0
SECTION
2
TABLES
0
TABLE
2
VPORT
5
8
100
AcDbSymbolTable
0
ENDTAB
0
TABLE
2
LTYPE
5
5
100
AcDbSymbolTable
0
LTYPE
5
14
100
AcDbSymbolTableRecord
100
AcDbLinetypeTableRecord
2
BYBLOCK
70
0
0
LTYPE
5
15
100
AcDbSymbolTableRecord
100
AcDbLinetypeTableRecord
2
BYLAYER
70
0
0
ENDTAB
0
TABLE
2
LAYER
5
2
100
AcDbSymbolTable
70
2
0
LAYER
5
50
100
AcDbSymbolTableRecord
100
AcDbLayerTableRecord
2
0
70
0
6
CONTINUOUS
0
ENDTAB
0
TABLE
2
STYLE
5
3
100
AcDbSymbolTable
70
1
0
STYLE
5
11
100
AcDbSymbolTableRecord
100
AcDbTextStyleTableRecord
2
STANDARD
70
0
0
ENDTAB
0
TABLE
2
VIEW
5
6
100
AcDbSymbolTable
70
0
0
ENDTAB
0
TABLE
2
UCS
5
7
100
AcDbSymbolTable
70
0
0
ENDTAB
0
TABLE
2
APPID
5
9
100
AcDbSymbolTable
70
2
0
APPID
5
12
100
AcDbSymbolTableRecord
100
AcDbRegAppTableRecord
2
ACAD
70
0
0
ENDTAB
0
TABLE
2
DIMSTYLE
5
A
100
AcDbSymbolTable
70
1
0
ENDTAB
0
TABLE
2
BLOCK_RECORD
5
1
100
AcDbSymbolTable
70
1
0
BLOCK_RECORD
5
1F
100
AcDbSymbolTableRecord
100
AcDbBlockTableRecord
2
*MODEL_SPACE
0
BLOCK_RECORD
5
1B
100
AcDbSymbolTableRecord
100
AcDbBlockTableRecord
2
*PAPER_SPACE
0
ENDTAB
0
ENDSEC
0
SECTION
2
BLOCKS
0
BLOCK
5
20
100
AcDbEntity
100
AcDbBlockBegin
2
*MODEL_SPACE
0
ENDBLK
5
21
100
AcDbEntity
100
AcDbBlockEnd
0
BLOCK
5
1C
100
AcDbEntity
100
AcDbBlockBegin
2
*PAPER_SPACE
0
ENDBLK
5
1D
100
AcDbEntity
100
AcDbBlockEnd
0
ENDSEC
0
SECTION
2
ENTITIES
0
LWPOLYLINE
5
100
100
AcDbEntity
8
0
100
AcDbPolyline
90
6
70
1
43
0.0
10
-92.122734266452113
20
64.524428174704781
42
-0.40771916757729876
10
-91.47792096451073
20
61.088378403839734
42
0.3825367084899125
10
-70.706636867366214
20
-84.264888909357794
42
-0.99999999999999989
10
-77.134512946217654
20
-91.925333355662985
42
-0.38280779817057348
10
-99.731017740607399
20
66.736227795872892
42
-0.42045962493966127
10
-96.219057848001768
20
67.393567251206363
0
CIRCLE
5
101
100
AcDbEntity
8
0
100
AcDbCircle
10
-73.920574906791956
20
-88.095111132510425
30
0
40
1.5000000000000033
210
0
220
-0
230
1
0
LWPOLYLINE
5
102
100
AcDbEntity
8
0
100
AcDbPolyline
90
8
70
1
43
0.0
10
-115.36357448744792
20
-16.507386421821884
42
-2.4142135623730234
10
-115.77717069313137
20
-16.17544037403059
10
-116.53379548959865
20
-9.2667488251647043
42
-2.4142135623730598
10
-116.20184944180735
20
-8.8531526194812624
10
-113.26938324480672
20
-8.5319953317721318
42
-2.4142135623730598
10
-112.85578703912327
20
-8.8639413795634194
10
-112.09916224265601
20
-15.772632928429296
42
-2.4142135623731038
10
-112.4311082904473
20
-16.186229134112743
0
LWPOLYLINE
5
103
100
AcDbEntity
8
0
100
AcDbPolyline
90
8
70
1
43
0.0
10
-104.51624490366433
20
-43.489684710716681
42
-2.4142135623731842
10
-104.73335796385183
20
-43.973535843913673
10
-107.49048379116417
20
-45.02270559775107
42
-2.4142135623730798
10
-107.97433492436119
20
-44.805592537563584
10
-110.44610773424932
20
-38.309991012200626
42
-2.4142135623730949
10
-110.22899467406182
20
-37.826139879003613
10
-107.47186884674946
20
-36.776970125166201
42
-2.4142135623731797
10
-106.98801771355247
20
-36.994083185353702
0
LWPOLYLINE
5
104
100
AcDbEntity
8
0
100
AcDbPolyline
90
8
70
1
43
0.0
10
-90.198813613324674
20
-68.40447461788591
42
-2.4142135623728915
10
-90.287103985702416
20
-68.927403685872605
10
-92.691233784469134
20
-70.636982555267608
42
-2.4142135623731313
10
-93.214162852455786
20
-70.548692182889837
10
-97.24181476509834
20
-64.884725368846276
42
-2.414213562373019
10
-97.153524392720598
20
-64.361796300859609
10
-94.749394593953852
20
-62.652217431464578
42
-2.4142135623730616
10
-94.226465525967185
20
-62.740507803842327
0
ARC
5
105
100
AcDbEntity
8
0
100
AcDbCircle
10
-105.71847549758883
20
40.513564869880369
30
0
40
0.37499999999998929
210
0
220
0
230
1
100
AcDbArc
50
-202.91666653193334
51
67.083333468066471
0
LINE
5
106
100
AcDbEntity
8
0
100
AcDbLine
10
-106.06387756356656
20
40.659586829935328
30
0
11
-108.78104048259164
21
41.808292915701067
31
0
0
ARC
5
107
100
AcDbEntity
8
0
100
AcDbCircle
10
-109.1264425485694
20
41.954314875756047
30
0
40
0.37499999999998929
210
0
220
-0
230
1
100
AcDbArc
50
67.083333468066471
51
337.08333346806535
0
LINE
5
108
100
AcDbEntity
8
0
100
AcDbLine
10
-108.98042058851443
20
42.299716941733799
30
0
11
-106.27414692882907
21
48.701168564521645
31
0
0
ARC
5
109
100
AcDbEntity
8
0
100
AcDbCircle
10
-106.12812496877409
20
49.046570630499417
30
0
40
0.37499999999999623
210
0
220
0
230
1
100
AcDbArc
50
-22.916666531935554
51
247.08333346806444
0
LINE
5
110
100
AcDbEntity
8
0
100
AcDbLine
10
-105.78272290279634
20
48.900548670444437
30
0
11
-103.06555998377124
21
47.751842584678712
31
0
0
ARC
5
111
100
AcDbEntity
8
0
100
AcDbCircle
10
-102.7201579177935
20
47.605820624623725
30
0
40
0.37499999999998807
210
0
220
0
230
1
100
AcDbArc
50
-112.91666653193596
51
157.08333346806464
0
LINE
5
112
100
AcDbEntity
8
0
100
AcDbLine
10
-102.86617987784848
20
47.260418558645981
30
0
11
-105.57245353753386
21
40.85896693585812
31
0
0
ARC
5
113
100
AcDbEntity
8
0
100
AcDbCircle
10
-112.51330909337329
20
12.589689307497832
30
0
40
0.37499999999999523
210
0
220
0
230
1
100
AcDbArc
50
-188.33333319859699
51
81.666666801400723
0
LINE
5
114
100
AcDbEntity
8
0
100
AcDbLine
10
-112.88434970796897
20
12.644038753865514
30
0
11
-115.80320254278818
21
13.071587731958076
31
0
0
ARC
5
115
100
AcDbEntity
8
0
100
AcDbCircle
10
-116.17424315738387
20
13.125937178325772
30
0
40
0.37500000000000633
210
0
220
-0
230
1
100
AcDbArc
50
81.666666801398847
51
351.66666680140116
0
LINE
5
116
100
AcDbEntity
8
0
100
AcDbLine
10
-116.11989371101616
20
13.496977792921438
30
0
11
-115.11261730500149
21
20.373597183427673
31
0
0
ARC
5
117
100
AcDbEntity
8
0
100
AcDbCircle
10
-115.05826785863378
20
20.744637798023323
30
0
40
0.37499999999999623
210
0
220
0
230
1
100
AcDbArc
50
-8.3333331985986838
51
261.66666680139866
0
LINE
5
118
100
AcDbEntity
8
0
100
AcDbLine
10
-114.68722724403813
20
20.690288351655632
30
0
11
-111.76837440921889
21
20.262739373563061
31
0
0
ARC
5
119
100
AcDbEntity
8
0
100
AcDbCircle
10
-111.39733379462321
20
20.208389927195359
30
0
40
0.37499999999998723
210
0
220
0
230
1
100
AcDbArc
50
-98.333333198605956
51
171.66666680139781
0
LINE
5
120
100
AcDbEntity
8
0
100
AcDbLine
10
-111.45168324099095
20
19.837349312599716
30
0
11
-112.4589596470056
21
12.960729922093485
31
0
0
ENDSEC
0
SECTION
2
OBJECTS
0
DICTIONARY
5
C
100
AcDbDictionary
3
ACAD_GROUP
350
D
3
ACAD_MLINESTYLE
350
17
0
DICTIONARY
5
D
100
AcDbDictionary
0
DICTIONARY
5
1A
330
C
100
AcDbDictionary
0
DICTIONARY
5
17
100
AcDbDictionary
0
ENDSEC
0
EOF
