0
SECTION
2
HEADER
9
$INSUNITS
70
4
9
$ACADVER
1
AC1014
9
$HANDSEED
5
FFFF
0
ENDSEC
0
SECTION
2
TABLES
0
TABLE
2
VPORT
5
8
100
AcDbSymbolTable
0
ENDTAB
0
TABLE
2
LTYPE
5
5
100
AcDbSymbolTable
0
LTYPE
5
14
100
AcDbSymbolTableRecord
100
AcDbLinetypeTableRecord
2
BYBLOCK
70
0
0
LTYPE
5
15
100
AcDbSymbolTableRecord
100
AcDbLinetypeTableRecord
2
BYLAYER
70
0
0
ENDTAB
0
TABLE
2
LAYER
5
2
100
AcDbSymbolTable
70
2
0
LAYER
5
50
100
AcDbSymbolTableRecord
100
AcDbLayerTableRecord
2
0
70
0
6
CONTINUOUS
0
ENDTAB
0
TABLE
2
STYLE
5
3
100
AcDbSymbolTable
70
1
0
STYLE
5
11
100
AcDbSymbolTableRecord
100
AcDbTextStyleTableRecord
2
STANDARD
70
0
0
ENDTAB
0
TABLE
2
VIEW
5
6
100
AcDbSymbolTable
70
0
0
ENDTAB
0
TABLE
2
UCS
5
7
100
AcDbSymbolTable
70
0
0
ENDTAB
0
TABLE
2
APPID
5
9
100
AcDbSymbolTable
70
2
0
APPID
5
12
100
AcDbSymbolTableRecord
100
AcDbRegAppTableRecord
2
ACAD
70
0
0
ENDTAB
0
TABLE
2
DIMSTYLE
5
A
100
AcDbSymbolTable
70
1
0
ENDTAB
0
TABLE
2
BLOCK_RECORD
5
1
100
AcDbSymbolTable
70
1
0
BLOCK_RECORD
5
1F
100
AcDbSymbolTableRecord
100
AcDbBlockTableRecord
2
*MODEL_SPACE
0
BLOCK_RECORD
5
1B
100
AcDbSymbolTableRecord
100
AcDbBlockTableRecord
2
*PAPER_SPACE
0
ENDTAB
0
ENDSEC
0
SECTION
2
BLOCKS
0
BLOCK
5
20
100
AcDbEntity
100
AcDbBlockBegin
2
*MODEL_SPACE
0
ENDBLK
5
21
100
AcDbEntity
100
AcDbBlockEnd
0
BLOCK
5
1C
100
AcDbEntity
100
AcDbBlockBegin
2
*PAPER_SPACE
0
ENDBLK
5
1D
100
AcDbEntity
100
AcDbBlockEnd
0
ENDSEC
0
SECTION
2
ENTITIES
0
LWPOLYLINE
5
100
100
AcDbEntity
8
0
100
AcDbPolyline
90
8
70
1
43
0.0
10
-79.132528336658794
20
95.347986216559491
42
-2.4142135623731282
10
-79.220818702826378
20
94.825057147524319
10
-84.884785469038619
20
90.797405167618081
42
-2.4142135623733676
10
-85.40771453807379
20
90.885695533785622
10
-87.117293436019651
20
93.289825312249803
42
-2.414213562373122
10
-87.029003069852109
20
93.812754381284989
10
-81.365036303639783
20
97.840406361191299
42
-2.4142135623730279
10
-80.842107234604597
20
97.752115995023701
0
LWPOLYLINE
5
101
100
AcDbEntity
8
0
100
AcDbPolyline
90
8
70
1
43
0.0
10
-53.257281181449144
20
108.07046077664268
42
-2.414213562373019
10
-53.474394235890529
20
107.58660964086728
10
-59.969995731899402
20
105.11483675383914
42
-2.4142135623731007
10
-60.453846867674777
20
105.33194980828056
10
-61.50301665425512
20
108.08907562313324
42
-2.4142135623731038
10
-61.285903599813693
20
108.57292675890859
10
-54.790302103804834
20
111.04469964593676
42
-2.4142135623732508
10
-54.306450968029473
20
110.82758659149539
0
ARC
5
102
100
AcDbEntity
8
0
100
AcDbCircle
10
-117.02616475571091
20
52.639691963010726
30
-4.4408920985006254e-15
40
0.37499999999999301
210
-1.2438590326217557e-18
220
6.2050888015253553e-17
230
1
100
AcDbArc
50
-115.41666585150386
51
154.5833341484956
0
LINE
5
103
100
AcDbEntity
8
0
100
AcDbLine
10
-117.18711395770603
20
52.300988029793047
30
-4.4200754167889045e-15
11
-120.17003916801568
21
46.023675134158552
31
0
0
ARC
5
104
100
AcDbEntity
8
0
100
AcDbCircle
10
-120.33098837001079
20
45.684971200940858
30
-1.4974105317610759e-31
40
0.37499999999999301
210
2.3825267980108872e-17
220
5.0138254025466438e-17
230
1
100
AcDbArc
50
-205.41666585150242
51
64.583334148493691
0
LINE
5
105
100
AcDbEntity
8
0
100
AcDbLine
10
-120.66969230322847
20
45.845920402935974
30
6.3117284211070801e-31
11
-123.33416324454095
21
47.112054125297618
31
-8.9511731360403246e-15
0
ARC
5
106
100
AcDbEntity
8
0
100
AcDbCircle
10
-123.67286717775866
20
47.273003327292749
30
-8.0311278680947735e-31
40
0.37499999999999339
210
-1.243859032622597e-18
220
6.2050888015250607e-17
230
1
100
AcDbArc
50
64.583334148499006
51
334.58333414849369
0
LINE
5
107
100
AcDbEntity
8
0
100
AcDbLine
10
-123.51191797576355
20
47.611707260510443
30
-2.0816681711721734e-17
11
-120.52899276545391
21
53.889020156144944
31
0
0
ARC
5
108
100
AcDbEntity
8
0
100
AcDbCircle
10
-120.3680435634588
20
54.227724089362638
30
-8.8817841970012523e-15
40
0.37499999999999301
210
0
220
0
230
1
100
AcDbArc
50
-25.416665851503407
51
244.58333414849898
0
LINE
5
109
100
AcDbEntity
8
0
100
AcDbLine
10
-120.02933963024111
20
54.066774887367515
30
-8.8817841970012523e-15
11
-117.3648686889286
21
52.800641165005857
31
-4.4408920985006262e-15
0
LWPOLYLINE
5
110
100
AcDbEntity
8
0
100
AcDbPolyline
90
8
70
1
43
0.0
10
-103.75891712124908
20
78.370327756620455
42
-2.4142135623730643
10
-103.2306051021046
20
78.416549076674087
10
-100.9707739679255
20
76.520325660250037
42
-2.4142135623731158
10
-100.92455264787189
20
75.992013641105586
10
-105.39192645944715
20
70.668004697870089
42
-2.4142135623731766
10
-105.9202384785916
20
70.62178337781647
10
-108.18006961277071
20
72.518006794240506
42
-2.4142135623730328
10
-108.22629093282431
20
73.046318813384971
0
CIRCLE
5
111
100
AcDbEntity
8
0
100
AcDbCircle
10
-29.000002014364643
20
114.91507108409222
30
-4.4408920985006262e-15
40
1.9499999999999948
210
0
220
-0
230
1
0
ARC
5
112
100
AcDbEntity
8
0
100
AcDbCircle
10
-126.89014070565671
20
25.646830527499318
30
4.9207510079093876e-31
40
0.37500000000000944
210
3.1969858904520654e-18
220
-5.7130203803893785e-17
230
1
100
AcDbArc
50
-100.83333251816927
51
169.16666748183295
0
LINE
5
113
100
AcDbEntity
8
0
100
AcDbLine
10
-126.9606229833166
20
25.278513750070051
30
-2.0816681711721485e-17
11
-128.26689452927997
21
18.452376141714481
31
-4.4408920985006262e-15
0
ARC
5
114
100
AcDbEntity
8
0
100
AcDbCircle
10
-128.33737680693989
20
18.084059364285224
30
0
40
0.3749999999999849
210
6.9645685220397338e-32
220
3.6394502552837858e-31
230
1
100
AcDbArc
50
-190.83333251816995
51
79.166667481825527
0
LINE
5
115
100
AcDbEntity
8
0
100
AcDbLine
10
-128.70569358436913
20
18.154541641945116
30
0
11
-131.60311890014594
21
18.709002226202941
31
0
0
ARC
5
116
100
AcDbEntity
8
0
100
AcDbCircle
10
-131.97143567757522
20
18.779484503862832
30
-4.4408920985006254e-15
40
0.37499999999999201
210
-2.4063931886727068e-17
220
-5.1913467304825495e-17
230
1
100
AcDbArc
50
79.166667481830316
51
349.16666748183002
0
LINE
5
117
100
AcDbEntity
8
0
100
AcDbLine
10
-131.90095339991532
20
19.147801281292086
30
-4.4200754167889045e-15
11
-130.59468185395195
21
25.97393888964767
31
-4.4408920985006262e-15
0
ARC
5
118
100
AcDbEntity
8
0
100
AcDbCircle
10
-130.52419957629203
20
26.34225566707693
30
-3.8518598887744717e-33
40
0.3749999999999849
210
-1.0433472998138925e-17
220
-5.4521835554359181e-17
230
1
100
AcDbArc
50
-10.833332518170506
51
259.16666748182627
0
LINE
5
119
100
AcDbEntity
8
0
100
AcDbLine
10
-130.15588279886279
20
26.271773389417035
30
1.5046072799165116e-31
11
-127.25845748308598
21
25.717312805159196
31
-4.1468061452129545e-31
0
CIRCLE
5
120
100
AcDbEntity
8
0
100
AcDbCircle
10
-131.23408584540641
20
-6.9227691274545453
30
0
40
1.9500000000000033
210
1.4419874886137739e-17
220
6.0364949242442025e-17
230
1
0
LWPOLYLINE
5
121
100
AcDbEntity
8
0
100
AcDbPolyline
90
4
70
1
43
0.0
10
-29.54433645933813
20
119.88535276745942
42
-0.99999999999999989
10
-28.455667569391156
20
109.944789400725
42
0.40149066690602175
10
-126.24479123386595
20
-6.5957534103197633
42
-0.99999999999999989
10
-136.22338045694693
20
-7.2497848445893549
42
-0.40149066690602148
0
ENDSEC
0
SECTION
2
OBJECTS
0
DICTIONARY
5
C
100
AcDbDictionary
3
ACAD_GROUP
350
D
3
ACAD_MLINESTYLE
350
17
0
DICTIONARY
5
D
100
AcDbDictionary
0
DICTIONARY
5
1A
330
C
100
AcDbDictionary
0
DICTIONARY
5
17
100
AcDbDictionary
0
ENDSEC
0
EOF
