0
SECTION
2
HEADER
9
$INSUNITS
70
4
9
$ACADVER
1
AC1014
9
$HANDSEED
5
FFFF
0
ENDSEC
0
SECTION
2
TABLES
0
TABLE
2
VPORT
5
8
100
AcDbSymbolTable
0
ENDTAB
0
TABLE
2
LTYPE
5
5
100
AcDbSymbolTable
0
LTYPE
5
14
100
AcDbSymbolTableRecord
100
AcDbLinetypeTableRecord
2
BYBLOCK
70
0
0
LTYPE
5
15
100
AcDbSymbolTableRecord
100
AcDbLinetypeTableRecord
2
BYLAYER
70
0
0
ENDTAB
0
TABLE
2
LAYER
5
2
100
AcDbSymbolTable
70
2
0
LAYER
5
50
100
AcDbSymbolTableRecord
100
AcDbLayerTableRecord
2
0
70
0
6
CONTINUOUS
0
ENDTAB
0
TABLE
2
STYLE
5
3
100
AcDbSymbolTable
70
1
0
STYLE
5
11
100
AcDbSymbolTableRecord
100
AcDbTextStyleTableRecord
2
STANDARD
70
0
0
ENDTAB
0
TABLE
2
VIEW
5
6
100
AcDbSymbolTable
70
0
0
ENDTAB
0
TABLE
2
UCS
5
7
100
AcDbSymbolTable
70
0
0
ENDTAB
0
TABLE
2
APPID
5
9
100
AcDbSymbolTable
70
2
0
APPID
5
12
100
AcDbSymbolTableRecord
100
AcDbRegAppTableRecord
2
ACAD
70
0
0
ENDTAB
0
TABLE
2
DIMSTYLE
5
A
100
AcDbSymbolTable
70
1
0
ENDTAB
0
TABLE
2
BLOCK_RECORD
5
1
100
AcDbSymbolTable
70
1
0
BLOCK_RECORD
5
1F
100
AcDbSymbolTableRecord
100
AcDbBlockTableRecord
2
*MODEL_SPACE
0
BLOCK_RECORD
5
1B
100
AcDbSymbolTableRecord
100
AcDbBlockTableRecord
2
*PAPER_SPACE
0
ENDTAB
0
ENDSEC
0
SECTION
2
BLOCKS
0
BLOCK
5
20
100
AcDbEntity
100
AcDbBlockBegin
2
*MODEL_SPACE
0
ENDBLK
5
21
100
AcDbEntity
100
AcDbBlockEnd
0
BLOCK
5
1C
100
AcDbEntity
100
AcDbBlockBegin
2
*PAPER_SPACE
0
ENDBLK
5
1D
100
AcDbEntity
100
AcDbBlockEnd
0
ENDSEC
0
SECTION
2
ENTITIES
0
LWPOLYLINE
5
100
100
AcDbEntity
8
0
100
AcDbPolyline
90
6
70
1
43
0.0
10
91.477920964510716
20
61.088378403839663
42
-0.40771916757728999
10
92.122734266452056
20
64.52442817470471
10
96.219057848001697
20
67.393567251206335
42
-0.4204596249396601
10
99.731017740607371
20
66.736227795872892
42
-0.38280779817057364
10
77.134512946217683
20
-91.925333355663099
42
-0.99999999999999989
10
70.706636867366072
20
-84.264888909357893
42
0.38253670848991272
0
CIRCLE
5
101
100
AcDbEntity
8
0
100
AcDbCircle
10
73.920574906791884
20
-88.095111132510496
30
0
40
1.9499999999999935
210
0
220
-0
230
1
0
LWPOLYLINE
5
102
100
AcDbEntity
8
0
100
AcDbPolyline
90
8
70
1
43
0.0
10
90.287103985702402
20
-68.927403685872704
42
-2.4142135623730052
10
90.198813613324646
20
-68.404474617886024
10
94.226465525967185
20
-62.740507803842448
42
-2.4142135623731935
10
94.749394593953838
20
-62.652217431464692
10
97.153524392720556
20
-64.361796300859723
42
-2.4142135623731282
10
97.241814765098297
20
-64.884725368846375
10
93.214162852455758
20
-70.548692182889965
42
-2.4142135623730949
10
92.691233784469119
20
-70.636982555267721
0
ARC
5
103
100
AcDbEntity
8
0
100
AcDbCircle
10
105.71847549758878
20
40.513564869880298
30
0
40
0.3749999999999975
210
0
220
0
230
1
100
AcDbArc
50
-247.08333346806688
51
22.916666531932531
0
LINE
5
104
100
AcDbEntity
8
0
100
AcDbLine
10
105.57245353753382
20
40.858966935858057
30
0
11
102.8661798778485
21
47.26041855864591
31
0
0
ARC
5
105
100
AcDbEntity
8
0
100
AcDbCircle
10
102.72015791779353
20
47.605820624623682
30
0
40
0.37500000000000222
210
-0
220
0
230
1
100
AcDbArc
50
22.916666531930687
51
292.91666653193226
0
LINE
5
106
100
AcDbEntity
8
0
100
AcDbLine
10
103.06555998377129
20
47.751842584678634
30
0
11
105.78272290279634
21
48.900548670444351
31
0
0
ARC
5
107
100
AcDbEntity
8
0
100
AcDbCircle
10
106.12812496877409
20
49.046570630499325
30
0
40
0.3749999999999975
210
0
220
0
230
1
100
AcDbArc
50
-67.083333468066897
51
202.91666653193283
0
LINE
5
108
100
AcDbEntity
8
0
100
AcDbLine
10
106.27414692882905
20
48.701168564521566
30
0
11
108.98042058851442
21
42.29971694173372
31
0
0
ARC
5
109
100
AcDbEntity
8
0
100
AcDbCircle
10
109.12644254856936
20
41.954314875755962
30
0
40
0.37500000000000566
210
0
220
0
230
1
100
AcDbArc
50
-157.08333346806734
51
112.91666653192911
0
LINE
5
110
100
AcDbEntity
8
0
100
AcDbLine
10
108.78104048259159
20
41.808292915700996
30
0
11
106.06387756356654
21
40.659586829935257
31
0
0
LWPOLYLINE
5
111
100
AcDbEntity
8
0
100
AcDbPolyline
90
8
70
1
43
0.0
10
115.77717069313137
20
-16.175440374030696
42
-2.4142135623730434
10
115.36357448744792
20
-16.507386421821984
10
112.4311082904473
20
-16.18622913411285
42
-2.4142135623731145
10
112.09916224265601
20
-15.772632928429404
10
112.8557870391233
20
-8.8639413795635296
42
-2.4142135623732099
10
113.26938324480672
20
-8.5319953317722366
10
116.20184944180734
20
-8.8531526194813743
42
-2.4142135623731704
10
116.53379548959863
20
-9.2667488251648162
0
ARC
5
112
100
AcDbEntity
8
0
100
AcDbCircle
10
112.51330909337329
20
12.589689307497737
30
0
40
0.37499999999999972
210
0
220
0
230
1
100
AcDbArc
50
-261.66666680140082
51
8.3333331985991634
0
LINE
5
113
100
AcDbEntity
8
0
100
AcDbLine
10
112.4589596470056
20
12.960729922093396
30
0
11
111.45168324099097
21
19.837349312599621
31
0
0
ARC
5
114
100
AcDbEntity
8
0
100
AcDbCircle
10
111.39733379462326
20
20.208389927195284
30
0
40
0.3749999999999975
210
-0
220
0
230
1
100
AcDbArc
50
8.3333331985992078
51
278.3333331985969
0
LINE
5
115
100
AcDbEntity
8
0
100
AcDbLine
10
111.76837440921892
20
20.262739373562979
30
0
11
114.68722724403813
21
20.690288351655532
31
0
0
ARC
5
116
100
AcDbEntity
8
0
100
AcDbCircle
10
115.05826785863377
20
20.744637798023227
30
0
40
0.37500000000000699
210
0
220
0
230
1
100
AcDbArc
50
-81.666666801394385
51
188.33333319860083
0
LINE
5
117
100
AcDbEntity
8
0
100
AcDbLine
10
115.11261730500151
20
20.373597183427567
30
0
11
116.11989371101615
21
13.496977792921347
31
0
0
ARC
5
118
100
AcDbEntity
8
0
100
AcDbCircle
10
116.17424315738384
20
13.125937178325682
30
0
40
0.3749999999999975
210
0
220
0
230
1
100
AcDbArc
50
-171.66666680140028
51
98.333333198599007
0
LINE
5
119
100
AcDbEntity
8
0
100
AcDbLine
10
115.80320254278818
20
13.071587731957983
30
0
11
112.88434970796897
21
12.644038753865434
31
0
0
LWPOLYLINE
5
120
100
AcDbEntity
8
0
100
AcDbPolyline
90
8
70
1
43
0.0
10
104.73335796385183
20
-43.973535843913787
42
-2.4142135623730949
10
104.51624490366433
20
-43.489684710716773
10
106.98801771355244
20
-36.994083185353837
42
-2.4142135623732131
10
107.47186884674944
20
-36.776970125166322
10
110.22899467406182
20
-37.826139879003748
42
-2.4142135623731447
10
110.4461077342493
20
-38.30999101220074
10
107.97433492436116
20
-44.805592537563697
42
-2.4142135623730567
10
107.49048379116415
20
-45.022705597751205
0
ENDSEC
0
SECTION
2
OBJECTS
0
DICTIONARY
5
C
100
AcDbDictionary
3
ACAD_GROUP
350
D
3
ACAD_MLINESTYLE
350
17
0
DICTIONARY
5
D
100
AcDbDictionary
0
DICTIONARY
5
1A
330
C
100
AcDbDictionary
0
DICTIONARY
5
17
100
AcDbDictionary
0
ENDSEC
0
EOF
