0
SECTION
2
HEADER
9
$INSUNITS
70
4
9
$ACADVER
1
AC1014
9
$HANDSEED
5
FFFF
0
ENDSEC
0
SECTION
2
TABLES
0
TABLE
2
VPORT
5
8
100
AcDbSymbolTable
0
ENDTAB
0
TABLE
2
LTYPE
5
5
100
AcDbSymbolTable
0
LTYPE
5
14
100
AcDbSymbolTableRecord
100
AcDbLinetypeTableRecord
2
BYBLOCK
70
0
0
LTYPE
5
15
100
AcDbSymbolTableRecord
100
AcDbLinetypeTableRecord
2
BYLAYER
70
0
0
ENDTAB
0
TABLE
2
LAYER
5
2
100
AcDbSymbolTable
70
2
0
LAYER
5
50
100
AcDbSymbolTableRecord
100
AcDbLayerTableRecord
2
0
70
0
6
CONTINUOUS
0
ENDTAB
0
TABLE
2
STYLE
5
3
100
AcDbSymbolTable
70
1
0
STYLE
5
11
100
AcDbSymbolTableRecord
100
AcDbTextStyleTableRecord
2
STANDARD
70
0
0
ENDTAB
0
TABLE
2
VIEW
5
6
100
AcDbSymbolTable
70
0
0
ENDTAB
0
TABLE
2
UCS
5
7
100
AcDbSymbolTable
70
0
0
ENDTAB
0
TABLE
2
APPID
5
9
100
AcDbSymbolTable
70
2
0
APPID
5
12
100
AcDbSymbolTableRecord
100
AcDbRegAppTableRecord
2
ACAD
70
0
0
ENDTAB
0
TABLE
2
DIMSTYLE
5
A
100
AcDbSymbolTable
70
1
0
ENDTAB
0
TABLE
2
BLOCK_RECORD
5
1
100
AcDbSymbolTable
70
1
0
BLOCK_RECORD
5
1F
100
AcDbSymbolTableRecord
100
AcDbBlockTableRecord
2
*MODEL_SPACE
0
BLOCK_RECORD
5
1B
100
AcDbSymbolTableRecord
100
AcDbBlockTableRecord
2
*PAPER_SPACE
0
ENDTAB
0
ENDSEC
0
SECTION
2
BLOCKS
0
BLOCK
5
20
100
AcDbEntity
100
AcDbBlockBegin
2
*MODEL_SPACE
0
ENDBLK
5
21
100
AcDbEntity
100
AcDbBlockEnd
0
BLOCK
5
1C
100
AcDbEntity
100
AcDbBlockBegin
2
*PAPER_SPACE
0
ENDBLK
5
1D
100
AcDbEntity
100
AcDbBlockEnd
0
ENDSEC
0
SECTION
2
ENTITIES
0
CIRCLE
5
100
100
AcDbEntity
8
0
100
AcDbCircle
10
-34.581167390125664
20
109.67744919506518
30
0
40
1.9499999999999995
210
-0
220
0
230
1
0
LWPOLYLINE
5
101
100
AcDbEntity
8
0
100
AcDbPolyline
90
8
70
1
43
0.0
10
-41.429823859292298
20
105.76539046393361
42
-2.4142135623731691
10
-41.625624985098412
20
105.27252951079056
10
-48.007226916693845
20
102.51977511080182
42
-2.4142135623730416
10
-48.500087869836889
20
102.71557623660794
10
-49.668523190695396
20
105.42431374714127
42
-2.4142135623731313
10
-49.472722064889297
20
105.91717470028429
10
-43.091120133293799
20
108.66992910027304
42
-2.414213562373031
10
-42.598259180150784
20
108.47412797446688
0
LWPOLYLINE
5
102
100
AcDbEntity
8
0
100
AcDbPolyline
90
8
70
1
43
0.0
10
-79.933062682809734
20
80.705970133233166
42
-2.4142135623732086
10
-79.917638179259484
20
80.1758644035054
10
-84.687017541837903
20
75.120617575128847
42
-2.414213562373154
10
-85.217123271565654
20
75.105193071578597
10
-87.362875522459291
20
77.129605894543516
42
-2.4142135623732401
10
-87.378300026009569
20
77.659711624271296
10
-82.608920663431164
20
82.714958452647863
42
-2.4142135623732055
10
-82.078814933703384
20
82.730382956198113
0
LWPOLYLINE
5
103
100
AcDbEntity
8
0
100
AcDbPolyline
90
8
70
1
43
0.0
10
-64.175853632065966
20
97.711094229856883
42
-2.4142135623729719
10
-63.653580451450502
20
97.619003379009371
10
-61.961529954363314
20
95.202504855255029
42
-2.4142135623731038
10
-62.053620805210841
20
94.680231674639572
10
-67.746727496767704
20
90.693875418790071
42
-2.4142135623730385
10
-68.269000677383161
20
90.785966269637584
10
-69.961051174470356
20
93.202464793391925
42
-2.4142135623731509
10
-69.868960323622829
20
93.724737974007382
0
CIRCLE
5
104
100
AcDbEntity
8
0
100
AcDbCircle
10
-91.235634418899693
20
70.007563964052451
30
0
40
1.9499999999999995
210
-0
220
0
230
1
0
LWPOLYLINE
5
105
100
AcDbEntity
8
0
100
AcDbPolyline
90
4
70
1
43
0.0
10
-36.084696407087669
20
114.44603394267673
42
-0.99999999999999989
10
-33.077638373163659
20
104.90886444745364
42
0.15391472105982895
10
-87.268867705034481
20
66.963756835180575
42
-0.99999999999999989
10
-95.202401132764891
20
73.051371092924299
42
-0.15391472105982887
0
ENDSEC
0
SECTION
2
OBJECTS
0
DICTIONARY
5
C
100
AcDbDictionary
3
ACAD_GROUP
350
D
3
ACAD_MLINESTYLE
350
17
0
DICTIONARY
5
D
100
AcDbDictionary
0
DICTIONARY
5
1A
330
C
100
AcDbDictionary
0
DICTIONARY
5
17
100
AcDbDictionary
0
ENDSEC
0
EOF
