0
SECTION
2
HEADER
9
$INSUNITS
70
4
9
$ACADVER
1
AC1014
9
$HANDSEED
5
FFFF
0
ENDSEC
0
SECTION
2
TABLES
0
TABLE
2
VPORT
5
8
100
AcDbSymbolTable
0
ENDTAB
0
TABLE
2
LTYPE
5
5
100
AcDbSymbolTable
0
LTYPE
5
14
100
AcDbSymbolTableRecord
100
AcDbLinetypeTableRecord
2
BYBLOCK
70
0
0
LTYPE
5
15
100
AcDbSymbolTableRecord
100
AcDbLinetypeTableRecord
2
BYLAYER
70
0
0
ENDTAB
0
TABLE
2
LAYER
5
2
100
AcDbSymbolTable
70
2
0
LAYER
5
50
100
AcDbSymbolTableRecord
100
AcDbLayerTableRecord
2
0
70
0
6
CONTINUOUS
0
ENDTAB
0
TABLE
2
STYLE
5
3
100
AcDbSymbolTable
70
1
0
STYLE
5
11
100
AcDbSymbolTableRecord
100
AcDbTextStyleTableRecord
2
STANDARD
70
0
0
ENDTAB
0
TABLE
2
VIEW
5
6
100
AcDbSymbolTable
70
0
0
ENDTAB
0
TABLE
2
UCS
5
7
100
AcDbSymbolTable
70
0
0
ENDTAB
0
TABLE
2
APPID
5
9
100
AcDbSymbolTable
70
2
0
APPID
5
12
100
AcDbSymbolTableRecord
100
AcDbRegAppTableRecord
2
ACAD
70
0
0
ENDTAB
0
TABLE
2
DIMSTYLE
5
A
100
AcDbSymbolTable
70
1
0
ENDTAB
0
TABLE
2
BLOCK_RECORD
5
1
100
AcDbSymbolTable
70
1
0
BLOCK_RECORD
5
1F
100
AcDbSymbolTableRecord
100
AcDbBlockTableRecord
2
*MODEL_SPACE
0
BLOCK_RECORD
5
1B
100
AcDbSymbolTableRecord
100
AcDbBlockTableRecord
2
*PAPER_SPACE
0
ENDTAB
0
ENDSEC
0
SECTION
2
BLOCKS
0
BLOCK
5
20
100
AcDbEntity
100
AcDbBlockBegin
2
*MODEL_SPACE
0
ENDBLK
5
21
100
AcDbEntity
100
AcDbBlockEnd
0
BLOCK
5
1C
100
AcDbEntity
100
AcDbBlockBegin
2
*PAPER_SPACE
0
ENDBLK
5
1D
100
AcDbEntity
100
AcDbBlockEnd
0
ENDSEC
0
SECTION
2
ENTITIES
0
LWPOLYLINE
5
100
100
AcDbEntity
8
0
100
AcDbPolyline
90
8
70
1
43
0.0
10
-90.198813613324646
20
-68.404474617886024
42
-2.4142135623728915
10
-90.287103985702387
20
-68.927403685872704
10
-92.691233784469091
20
-70.636982555267721
42
-2.4142135623730994
10
-93.214162852455758
20
-70.548692182889965
10
-97.241814765098297
20
-64.884725368846389
42
-2.4142135623731189
10
-97.153524392720556
20
-64.361796300859723
10
-94.749394593953838
20
-62.652217431464699
42
-2.414213562373198
10
-94.226465525967185
20
-62.740507803842448
0
ARC
5
101
100
AcDbEntity
8
0
100
AcDbCircle
10
-112.51330909337329
20
12.589689307497737
30
0
40
0.3749999999999965
210
0
220
0
230
1
100
AcDbArc
50
-188.33333319859861
51
81.666666801400794
0
LINE
5
102
100
AcDbEntity
8
0
100
AcDbLine
10
-112.88434970796897
20
12.644038753865431
30
0
11
-115.80320254278818
21
13.071587731957985
31
0
0
ARC
5
103
100
AcDbEntity
8
0
100
AcDbCircle
10
-116.17424315738387
20
13.125937178325691
30
0
40
0.37499999999999784
210
0
220
-0
230
1
100
AcDbArc
50
81.666666801396445
51
351.6666668013998
0
LINE
5
104
100
AcDbEntity
8
0
100
AcDbLine
10
-116.11989371101615
20
13.496977792921346
30
0
11
-115.11261730500151
21
20.373597183427577
31
0
0
ARC
5
105
100
AcDbEntity
8
0
100
AcDbCircle
10
-115.05826785863378
20
20.744637798023223
30
0
40
0.37499999999999623
210
0
220
0
230
1
100
AcDbArc
50
-8.3333331985981243
51
261.66666680139855
0
LINE
5
106
100
AcDbEntity
8
0
100
AcDbLine
10
-114.68722724403813
20
20.690288351655536
30
0
11
-111.76837440921892
21
20.262739373562976
31
0
0
ARC
5
107
100
AcDbEntity
8
0
100
AcDbCircle
10
-111.39733379462325
20
20.208389927195284
30
0
40
0.37500000000000411
210
0
220
0
230
1
100
AcDbArc
50
-98.33333319859905
51
171.66666680140048
0
LINE
5
108
100
AcDbEntity
8
0
100
AcDbLine
10
-111.45168324099095
20
19.837349312599621
30
0
11
-112.4589596470056
21
12.960729922093394
31
0
0
LWPOLYLINE
5
109
100
AcDbEntity
8
0
100
AcDbPolyline
90
8
70
1
43
0.0
10
-115.36357448744792
20
-16.507386421821991
42
-2.4142135623730234
10
-115.77717069313137
20
-16.175440374030696
10
-116.53379548959865
20
-9.2667488251648109
42
-2.4142135623730616
10
-116.20184944180735
20
-8.853152619481369
10
-113.26938324480672
20
-8.5319953317722312
42
-2.4142135623730296
10
-112.85578703912327
20
-8.863941379563526
10
-112.09916224265599
20
-15.772632928429399
42
-2.4142135623730252
10
-112.4311082904473
20
-16.18622913411285
0
CIRCLE
5
110
100
AcDbEntity
8
0
100
AcDbCircle
10
-73.920574906791884
20
-88.095111132510496
30
0
40
1.9499999999999935
210
0
220
-0
230
1
0
ARC
5
111
100
AcDbEntity
8
0
100
AcDbCircle
10
-105.71847549758878
20
40.513564869880298
30
0
40
0.37499999999999278
210
0
220
0
230
1
100
AcDbArc
50
-202.91666653193354
51
67.083333468070876
0
LINE
5
112
100
AcDbEntity
8
0
100
AcDbLine
10
-106.06387756356654
20
40.659586829935265
30
0
11
-108.78104048259164
21
41.808292915700996
31
0
0
ARC
5
113
100
AcDbEntity
8
0
100
AcDbCircle
10
-109.12644254856936
20
41.954314875755962
30
0
40
0.3749999999999975
210
0
220
-0
230
1
100
AcDbArc
50
67.083333468066897
51
337.08333346806472
0
LINE
5
114
100
AcDbEntity
8
0
100
AcDbLine
10
-108.98042058851439
20
42.29971694173372
30
0
11
-106.27414692882905
21
48.701168564521566
31
0
0
ARC
5
115
100
AcDbEntity
8
0
100
AcDbCircle
10
-106.12812496877409
20
49.046570630499325
30
0
40
0.37499999999999278
210
0
220
0
230
1
100
AcDbArc
50
-22.916666531934535
51
247.08333346806688
0
LINE
5
116
100
AcDbEntity
8
0
100
AcDbLine
10
-105.78272290279634
20
48.900548670444351
30
0
11
-103.06555998377127
21
47.751842584678641
31
0
0
ARC
5
117
100
AcDbEntity
8
0
100
AcDbCircle
10
-102.72015791779353
20
47.605820624623696
30
0
40
0.3750000000000151
210
0
220
0
230
1
100
AcDbArc
50
-112.91666653192941
51
157.08333346807004
0
LINE
5
118
100
AcDbEntity
8
0
100
AcDbLine
10
-102.86617987784848
20
47.26041855864591
30
0
11
-105.57245353753385
21
40.858966935858057
31
0
0
LWPOLYLINE
5
119
100
AcDbEntity
8
0
100
AcDbPolyline
90
8
70
1
43
0.0
10
-104.51624490366433
20
-43.489684710716787
42
-2.4142135623731842
10
-104.73335796385183
20
-43.97353584391378
10
-107.49048379116417
20
-45.022705597751205
42
-2.4142135623731553
10
-107.97433492436116
20
-44.805592537563712
10
-110.44610773424932
20
-38.309991012200761
42
-2.4142135623729581
10
-110.22899467406179
20
-37.826139879003719
10
-107.47186884674946
20
-36.776970125166329
42
-2.4142135623731829
10
-106.98801771355247
20
-36.994083185353823
0
CIRCLE
5
120
100
AcDbEntity
8
0
100
AcDbCircle
10
-91.235634298118313
20
70.007564121457634
30
0
40
1.9500000000000026
210
0
220
-0
230
1
0
LWPOLYLINE
5
121
100
AcDbEntity
8
0
100
AcDbPolyline
90
4
70
1
43
0.0
10
-70.706636867366115
20
-84.264888909357893
42
-0.99999999999999989
10
-77.13451294621764
20
-91.925333355663113
42
-0.4014906669060212
10
-95.202401006732188
20
73.051371257173201
42
-0.99999999999999989
10
-87.268867589504438
20
66.96375698574208
42
0.40149066690602153
0
ENDSEC
0
SECTION
2
OBJECTS
0
DICTIONARY
5
C
100
AcDbDictionary
3
ACAD_GROUP
350
D
3
ACAD_MLINESTYLE
350
17
0
DICTIONARY
5
D
100
AcDbDictionary
0
DICTIONARY
5
1A
330
C
100
AcDbDictionary
0
DICTIONARY
5
17
100
AcDbDictionary
0
ENDSEC
0
EOF
