0
SECTION
2
HEADER
9
$INSUNITS
70
4
9
$ACADVER
1
AC1014
9
$HANDSEED
5
FFFF
0
ENDSEC
0
SECTION
2
TABLES
0
TABLE
2
VPORT
5
8
100
AcDbSymbolTable
0
ENDTAB
0
TABLE
2
LTYPE
5
5
100
AcDbSymbolTable
0
LTYPE
5
14
100
AcDbSymbolTableRecord
100
AcDbLinetypeTableRecord
2
BYBLOCK
70
0
0
LTYPE
5
15
100
AcDbSymbolTableRecord
100
AcDbLinetypeTableRecord
2
BYLAYER
70
0
0
ENDTAB
0
TABLE
2
LAYER
5
2
100
AcDbSymbolTable
70
2
0
LAYER
5
50
100
AcDbSymbolTableRecord
100
AcDbLayerTableRecord
2
0
70
0
6
CONTINUOUS
0
ENDTAB
0
TABLE
2
STYLE
5
3
100
AcDbSymbolTable
70
1
0
STYLE
5
11
100
AcDbSymbolTableRecord
100
AcDbTextStyleTableRecord
2
STANDARD
70
0
0
ENDTAB
0
TABLE
2
VIEW
5
6
100
AcDbSymbolTable
70
0
0
ENDTAB
0
TABLE
2
UCS
5
7
100
AcDbSymbolTable
70
0
0
ENDTAB
0
TABLE
2
APPID
5
9
100
AcDbSymbolTable
70
2
0
APPID
5
12
100
AcDbSymbolTableRecord
100
AcDbRegAppTableRecord
2
ACAD
70
0
0
ENDTAB
0
TABLE
2
DIMSTYLE
5
A
100
AcDbSymbolTable
70
1
0
ENDTAB
0
TABLE
2
BLOCK_RECORD
5
1
100
AcDbSymbolTable
70
1
0
BLOCK_RECORD
5
1F
100
AcDbSymbolTableRecord
100
AcDbBlockTableRecord
2
*MODEL_SPACE
0
BLOCK_RECORD
5
1B
100
AcDbSymbolTableRecord
100
AcDbBlockTableRecord
2
*PAPER_SPACE
0
ENDTAB
0
ENDSEC
0
SECTION
2
BLOCKS
0
BLOCK
5
20
100
AcDbEntity
100
AcDbBlockBegin
2
*MODEL_SPACE
0
ENDBLK
5
21
100
AcDbEntity
100
AcDbBlockEnd
0
BLOCK
5
1C
100
AcDbEntity
100
AcDbBlockBegin
2
*PAPER_SPACE
0
ENDBLK
5
1D
100
AcDbEntity
100
AcDbBlockEnd
0
ENDSEC
0
SECTION
2
ENTITIES
0
CIRCLE
5
100
100
AcDbEntity
8
0
100
AcDbCircle
10
29.000002014364522
20
114.91507129984592
30
0
40
1.5000000000000038
210
0
220
-0
230
1
0
ARC
5
101
100
AcDbEntity
8
0
100
AcDbCircle
10
126.89014070565668
20
25.646830743253087
30
0
40
0.37500000000000322
210
0
220
-0
230
1
100
AcDbArc
50
10.833332518170133
51
280.83333251816947
0
LINE
5
102
100
AcDbEntity
8
0
100
AcDbLine
10
127.25845748308593
20
25.717313020912982
30
0
11
130.15588279886271
21
26.271773605170804
31
0
0
ARC
5
103
100
AcDbEntity
8
0
100
AcDbCircle
10
130.52419957629201
20
26.342255882830678
30
0
40
0.37499999999999534
210
-1.0744322998966658e-30
220
-2.0560680460077762e-31
230
1
100
AcDbArc
50
-79.166667481830203
51
190.83333251816572
0
LINE
5
104
100
AcDbEntity
8
0
100
AcDbLine
10
130.5946818539519
20
25.973939105401428
30
0
11
131.90095339991529
21
19.14780149704584
31
2.7755575615628914e-16
0
ARC
5
105
100
AcDbEntity
8
0
100
AcDbCircle
10
131.97143567757516
20
18.779484719616601
30
0
40
0.37500000000000078
210
1.4419118330534076e-29
220
-7.53494832062751e-29
230
1
100
AcDbArc
50
-169.16666748183189
51
100.83333251816514
0
LINE
5
106
100
AcDbEntity
8
0
100
AcDbLine
10
131.60311890014589
20
18.709002441956716
30
0
11
128.70569358436904
21
18.15454185769886
31
0
0
ARC
5
107
100
AcDbEntity
8
0
100
AcDbCircle
10
128.3373768069398
20
18.084059580038961
30
-1.7694481364057729e-32
40
0.37500000000000078
210
1.3630458888591504e-17
220
2.6083682495342974e-18
230
1
100
AcDbArc
50
-259.16666748183053
51
10.833332518170234
0
LINE
5
108
100
AcDbEntity
8
0
100
AcDbLine
10
128.26689452927991
20
18.452376357468221
30
5.6422772996869211e-32
11
126.96062298331657
21
25.278513965823826
31
0
0
ARC
5
109
100
AcDbEntity
8
0
100
AcDbCircle
10
117.02616475571084
20
52.639692178764477
30
4.4408920985006262e-15
40
0.37499999999999678
210
-2.5069127012626131e-17
220
-1.1912633990003417e-17
230
1
100
AcDbArc
50
25.416665851504401
51
295.41666585150148
0
LINE
5
110
100
AcDbEntity
8
0
100
AcDbLine
10
117.36486868892852
20
52.800641380759608
30
4.451300439356487e-15
11
120.02933963024105
21
54.066775103121223
31
-6.9388939039072284e-17
0
ARC
5
111
100
AcDbEntity
8
0
100
AcDbCircle
10
120.36804356345871
20
54.227724305116368
30
-4.5259353693100043e-32
40
0.37500000000000061
210
8.2018069201198686e-31
220
-1.7260006442408703e-30
230
1
100
AcDbArc
50
-64.58333414849217
51
205.41666585150818
0
LINE
5
112
100
AcDbEntity
8
0
100
AcDbLine
10
120.52899276545386
20
53.889020371898688
30
-7.6186998850488716e-31
11
123.51191797576348
21
47.611707476264158
31
-4.4408920985006262e-15
0
ARC
5
113
100
AcDbEntity
8
0
100
AcDbCircle
10
123.67286717775858
20
47.273003543046471
30
0
40
0.37499999999999678
210
2.5069127012603954e-17
220
1.1912633990046994e-17
230
1
100
AcDbArc
50
-154.58333414849565
51
115.41666585149903
0
LINE
5
114
100
AcDbEntity
8
0
100
AcDbLine
10
123.3341632445409
20
47.112054341051348
30
1.0408340855860738e-17
11
120.66969230322839
21
45.845920618689689
31
0
0
ARC
5
115
100
AcDbEntity
8
0
100
AcDbCircle
10
120.3309883700107
20
45.684971416694566
30
0
40
0.375000000000001
210
-1.583659122748482e-30
220
-7.5254122270507328e-31
230
1
100
AcDbArc
50
-244.58333414849653
51
25.416665851502387
0
LINE
5
116
100
AcDbEntity
8
0
100
AcDbLine
10
120.17003916801558
20
46.023675349912253
30
0
11
117.18711395770595
21
52.30098824554679
31
4.4408920985006254e-15
0
LWPOLYLINE
5
117
100
AcDbEntity
8
0
100
AcDbPolyline
90
8
70
1
43
0.0
10
53.474394235890458
20
107.58660985662092
42
-2.4142135623730434
10
53.257281181449024
20
108.07046099239631
10
54.306450968029367
20
110.82758680724905
42
-2.4142135623731704
10
54.790302103804727
20
111.04469986169043
10
61.285903599813608
20
108.57292697466229
42
-2.4142135623730341
10
61.503016654254978
20
108.08907583888691
10
60.453846867674685
20
105.33195002403423
42
-2.4142135623732464
10
59.969995731899331
20
105.11483696959282
0
LWPOLYLINE
5
118
100
AcDbEntity
8
0
100
AcDbPolyline
90
8
70
1
43
0.0
10
103.23060510210451
20
78.416549292427788
42
-2.4142135623731522
10
103.75891712124896
20
78.370327972374184
10
108.22629093282423
20
73.046319029138672
42
-2.4142135623731313
10
108.18006961277062
20
72.518007009994221
10
105.92023847859153
20
70.621783593570186
42
-2.4142135623731207
10
105.39192645944708
20
70.668004913623804
10
100.92455264787182
20
75.992013856859316
42
-2.4142135623731571
10
100.97077396792541
20
76.520325876003767
0
CIRCLE
5
119
100
AcDbEntity
8
0
100
AcDbCircle
10
131.23408584540638
20
-6.9227689117007509
30
4.4408920985006262e-15
40
1.5000000000000038
210
0
220
-0
230
1
0
LWPOLYLINE
5
120
100
AcDbEntity
8
0
100
AcDbPolyline
90
8
70
1
43
0.0
10
79.220818702826264
20
94.825057363277978
42
-2.4142135623730949
10
79.132528336658694
20
95.347986432313149
10
80.842107234604555
20
97.752116210777373
42
-2.4142135623732539
10
81.365036303639698
20
97.840406576944972
10
87.029003069851967
20
93.81275459703869
42
-2.4142135623732734
10
87.117293436019565
20
93.289825528003533
10
85.407714538073748
20
90.885695749539337
42
-2.414213562373198
10
84.884785469038562
20
90.797405383371753
0
LWPOLYLINE
5
121
100
AcDbEntity
8
0
100
AcDbPolyline
90
4
70
1
43
0.0
10
28.455667569391089
20
109.9447896164787
42
-0.99999999999999989
10
29.544336459337941
20
119.88535298321311
42
-0.40149066690602175
10
136.22338045694687
20
-7.249784628835596
42
-0.99999999999999989
10
126.2447912338659
20
-6.5957531945659049
42
0.40149066690602198
0
ENDSEC
0
SECTION
2
OBJECTS
0
DICTIONARY
5
C
100
AcDbDictionary
3
ACAD_GROUP
350
D
3
ACAD_MLINESTYLE
350
17
0
DICTIONARY
5
D
100
AcDbDictionary
0
DICTIONARY
5
1A
330
C
100
AcDbDictionary
0
DICTIONARY
5
17
100
AcDbDictionary
0
ENDSEC
0
EOF
