0
SECTION
2
HEADER
9
$INSUNITS
70
4
9
$ACADVER
1
AC1014
9
$HANDSEED
5
FFFF
0
ENDSEC
0
SECTION
2
TABLES
0
TABLE
2
VPORT
5
8
100
AcDbSymbolTable
0
ENDTAB
0
TABLE
2
LTYPE
5
5
100
AcDbSymbolTable
0
LTYPE
5
14
100
AcDbSymbolTableRecord
100
AcDbLinetypeTableRecord
2
BYBLOCK
70
0
0
LTYPE
5
15
100
AcDbSymbolTableRecord
100
AcDbLinetypeTableRecord
2
BYLAYER
70
0
0
ENDTAB
0
TABLE
2
LAYER
5
2
100
AcDbSymbolTable
70
2
0
LAYER
5
50
100
AcDbSymbolTableRecord
100
AcDbLayerTableRecord
2
0
70
0
6
CONTINUOUS
0
ENDTAB
0
TABLE
2
STYLE
5
3
100
AcDbSymbolTable
70
1
0
STYLE
5
11
100
AcDbSymbolTableRecord
100
AcDbTextStyleTableRecord
2
STANDARD
70
0
0
ENDTAB
0
TABLE
2
VIEW
5
6
100
AcDbSymbolTable
70
0
0
ENDTAB
0
TABLE
2
UCS
5
7
100
AcDbSymbolTable
70
0
0
ENDTAB
0
TABLE
2
APPID
5
9
100
AcDbSymbolTable
70
2
0
APPID
5
12
100
AcDbSymbolTableRecord
100
AcDbRegAppTableRecord
2
ACAD
70
0
0
ENDTAB
0
TABLE
2
DIMSTYLE
5
A
100
AcDbSymbolTable
70
1
0
ENDTAB
0
TABLE
2
BLOCK_RECORD
5
1
100
AcDbSymbolTable
70
1
0
BLOCK_RECORD
5
1F
100
AcDbSymbolTableRecord
100
AcDbBlockTableRecord
2
*MODEL_SPACE
0
BLOCK_RECORD
5
1B
100
AcDbSymbolTableRecord
100
AcDbBlockTableRecord
2
*PAPER_SPACE
0
ENDTAB
0
ENDSEC
0
SECTION
2
BLOCKS
0
BLOCK
5
20
100
AcDbEntity
100
AcDbBlockBegin
2
*MODEL_SPACE
0
ENDBLK
5
21
100
AcDbEntity
100
AcDbBlockEnd
0
BLOCK
5
1C
100
AcDbEntity
100
AcDbBlockBegin
2
*PAPER_SPACE
0
ENDBLK
5
1D
100
AcDbEntity
100
AcDbBlockEnd
0
ENDSEC
0
SECTION
2
ENTITIES
0
LWPOLYLINE
5
100
100
AcDbEntity
8
0
100
AcDbPolyline
90
8
70
1
43
0.0
10
90.28710398570243
20
-68.927403685872591
42
-2.4142135623730052
10
90.198813613324674
20
-68.404474617885924
10
94.2264655259672
20
-62.740507803842334
42
-2.4142135623731935
10
94.749394593953852
20
-62.652217431464578
10
97.153524392720584
20
-64.361796300859623
42
-2.414213562373198
10
97.24181476509834
20
-64.884725368846262
10
93.214162852455814
20
-70.548692182889852
42
-2.4142135623730279
10
92.691233784469148
20
-70.636982555267608
0
CIRCLE
5
101
100
AcDbEntity
8
0
100
AcDbCircle
10
73.920574906791956
20
-88.095111132510425
30
0
40
1.5000000000000033
210
0
220
-0
230
1
0
LWPOLYLINE
5
102
100
AcDbEntity
8
0
100
AcDbPolyline
90
8
70
1
43
0.0
10
115.77717069313137
20
-16.17544037403059
42
-2.4142135623730434
10
115.36357448744792
20
-16.507386421821877
10
112.4311082904473
20
-16.186229134112743
42
-2.4142135623731145
10
112.09916224265601
20
-15.772632928429298
10
112.8557870391233
20
-8.863941379563423
42
-2.4142135623732086
10
113.26938324480672
20
-8.53199533177213
10
116.20184944180735
20
-8.8531526194812642
42
-2.4142135623731615
10
116.53379548959863
20
-9.2667488251647097
0
LWPOLYLINE
5
103
100
AcDbEntity
8
0
100
AcDbPolyline
90
8
70
1
43
0.0
10
104.73335796385183
20
-43.97353584391368
42
-2.4142135623730949
10
104.51624490366433
20
-43.489684710716659
10
106.98801771355248
20
-36.994083185353695
42
-2.4142135623732859
10
107.47186884674944
20
-36.776970125166208
10
110.22899467406184
20
-37.826139879003634
42
-2.4142135623732237
10
110.44610773424932
20
-38.309991012200619
10
107.97433492436116
20
-44.805592537563577
42
-2.4142135623730798
10
107.49048379116417
20
-45.022705597751091
0
CIRCLE
5
104
100
AcDbEntity
8
0
100
AcDbCircle
10
91.235634298118327
20
70.007564121457662
30
0
40
1.9500000000000026
210
0
220
-0
230
1
0
ARC
5
105
100
AcDbEntity
8
0
100
AcDbCircle
10
112.51330909337329
20
12.589689307497832
30
0
40
0.3749999999999975
210
0
220
0
230
1
100
AcDbArc
50
-261.66666680140082
51
8.3333331985983303
0
LINE
5
106
100
AcDbEntity
8
0
100
AcDbLine
10
112.4589596470056
20
12.960729922093488
30
0
11
111.45168324099096
21
19.837349312599727
31
0
0
ARC
5
107
100
AcDbEntity
8
0
100
AcDbCircle
10
111.39733379462321
20
20.208389927195359
30
0
40
0.37500000000001699
210
-0
220
0
230
1
100
AcDbArc
50
8.3333331986015775
51
278.33333319860537
0
LINE
5
108
100
AcDbEntity
8
0
100
AcDbLine
10
111.76837440921888
20
20.262739373563072
30
0
11
114.68722724403813
21
20.690288351655624
31
0
0
ARC
5
109
100
AcDbEntity
8
0
100
AcDbCircle
10
115.05826785863378
20
20.74463779802333
30
0
40
0.37500000000000633
210
0
220
0
230
1
100
AcDbArc
50
-81.666666801398762
51
188.33333319860046
0
LINE
5
110
100
AcDbEntity
8
0
100
AcDbLine
10
115.11261730500149
20
20.373597183427666
30
0
11
116.11989371101615
21
13.496977792921438
31
0
0
ARC
5
111
100
AcDbEntity
8
0
100
AcDbCircle
10
116.17424315738387
20
13.125937178325772
30
0
40
0.3749999999999975
210
0
220
0
230
1
100
AcDbArc
50
-171.66666680140057
51
98.333333198603313
0
LINE
5
112
100
AcDbEntity
8
0
100
AcDbLine
10
115.8032025427882
20
13.071587731958074
30
0
11
112.88434970796897
21
12.644038753865523
31
0
0
ARC
5
113
100
AcDbEntity
8
0
100
AcDbCircle
10
105.71847549758883
20
40.513564869880355
30
0
40
0.37499999999999872
210
0
220
0
230
1
100
AcDbArc
50
-247.08333346806975
51
22.916666531935373
0
LINE
5
114
100
AcDbEntity
8
0
100
AcDbLine
10
105.57245353753387
20
40.858966935858128
30
0
11
102.86617987784848
21
47.260418558645981
31
0
0
ARC
5
115
100
AcDbEntity
8
0
100
AcDbCircle
10
102.72015791779351
20
47.605820624623753
30
0
40
0.37500000000000222
210
-0
220
0
230
1
100
AcDbArc
50
22.916666531930687
51
292.91666653193226
0
LINE
5
116
100
AcDbEntity
8
0
100
AcDbLine
10
103.06555998377128
20
47.751842584678705
30
0
11
105.78272290279634
21
48.900548670444444
31
0
0
ARC
5
117
100
AcDbEntity
8
0
100
AcDbCircle
10
106.12812496877409
20
49.046570630499417
30
0
40
0.37500000000000444
210
0
220
0
230
1
100
AcDbArc
50
-67.083333468065305
51
202.91666653193383
0
LINE
5
118
100
AcDbEntity
8
0
100
AcDbLine
10
106.27414692882907
20
48.701168564521652
30
0
11
108.98042058851442
21
42.299716941733799
31
0
0
ARC
5
119
100
AcDbEntity
8
0
100
AcDbCircle
10
109.12644254856937
20
41.954314875756033
30
0
40
0.37500000000000566
210
0
220
0
230
1
100
AcDbArc
50
-157.08333346806734
51
112.91666653193069
0
LINE
5
120
100
AcDbEntity
8
0
100
AcDbLine
10
108.78104048259161
20
41.808292915701067
30
0
11
106.06387756356656
21
40.659586829935328
31
0
0
ARC
5
121
100
AcDbEntity
8
0
100
AcDbCircle
10
73.920574906791956
20
-88.095111132510425
30
0
40
5.0000000000000258
210
0
220
0
230
1
100
AcDbArc
50
129.9999998652666
51
309.99999986526592
0
ARC
5
122
100
AcDbEntity
8
0
100
AcDbCircle
10
-5.3290704856814651e-14
20
8.8817841428024392e-15
30
0
40
120.00000000000007
210
-0
220
0
230
1
100
AcDbArc
50
-50.000000134733888
51
37.499999865266062
0
ARC
5
123
100
AcDbEntity
8
0
100
AcDbCircle
10
91.235634298118327
20
70.007564121457662
30
0
40
4.9999999999999831
210
0
220
-0
230
1
100
AcDbArc
50
37.499999865265934
51
217.49999986526626
0
ARC
5
124
100
AcDbEntity
8
0
100
AcDbCircle
10
-5.3290704856814651e-14
20
8.8817841428024392e-15
30
0
40
110.00000000000001
210
0
220
0
230
1
100
AcDbArc
50
-50.000000134733888
51
37.499999865266048
0
ENDSEC
0
SECTION
2
OBJECTS
0
DICTIONARY
5
C
100
AcDbDictionary
3
ACAD_GROUP
350
D
3
ACAD_MLINESTYLE
350
17
0
DICTIONARY
5
D
100
AcDbDictionary
0
DICTIONARY
5
1A
330
C
100
AcDbDictionary
0
DICTIONARY
5
17
100
AcDbDictionary
0
ENDSEC
0
EOF
