<?xml version="1.0" encoding="UTF-8"?>
<!DOCTYPE svg PUBLIC "-//W3C//DTD SVG 1.1//EN" "http://www.w3.org/Graphics/SVG/1.1/DTD/svg11.dtd">
<!-- Creator: CorelDRAW 2019 (64-Bit) -->
<svg xmlns="http://www.w3.org/2000/svg" xml:space="preserve" width="450mm" height="300mm" version="1.1" style="shape-rendering:geometricPrecision; text-rendering:geometricPrecision; image-rendering:optimizeQuality; fill-rule:evenodd; clip-rule:evenodd"
viewBox="0 0 45000 30000"
 xmlns:xlink="http://www.w3.org/1999/xlink">
 <defs>
  <style type="text/css">
   <![CDATA[
    .str0 {stroke:red;stroke-width:7.62;stroke-linejoin:bevel;stroke-miterlimit:22.9256}
    .fil0 {fill:none}
   ]]>
  </style>
 </defs>
 <g id="_0">
  <metadata id="CorelCorpID_0Corel-Layer"/>
  <g id="_1660703071952">
   <path class="fil0 str0" d="M12946.12 9213.38c0,-593.71 -481.29,-1075 -1075,-1075 -593.7,0 -1075,481.29 -1075,1075 0,593.7 481.29,1075 1075,1075 593.7,0 1075,-481.29 1075,-1074.99z"/>
   <path class="fil0 str0" d="M13486.12 8927.75c-16.52,7.21 -35.84,1.65 -46,-13.24 -10.15,-14.9 -8.28,-34.91 4.47,-47.66 12.74,-12.75 32.76,-14.62 47.65,-4.47 14.9,10.16 20.46,29.48 13.25,46l331.26 0c-7.21,-16.52 -1.65,-35.84 13.24,-46 14.9,-10.15 34.91,-8.28 47.66,4.47 12.75,12.74 14.62,32.76 4.47,47.65 -10.16,14.9 -29.48,20.46 -46,13.25l0 571.26c16.52,-7.21 35.84,-1.65 46,13.24 10.15,14.9 8.28,34.91 -4.47,47.66 -12.74,12.75 -32.76,14.62 -47.65,4.47 -14.9,-10.16 -20.46,-29.48 -13.25,-46l-331.26 0c7.21,16.52 1.65,35.84 -13.24,46 -14.9,10.15 -34.91,8.28 -47.66,-4.47 -12.75,-12.74 -14.62,-32.76 -4.47,-47.65 10.16,-14.9 29.48,-20.46 46,-13.25l0 -571.26z"/>
   <path class="fil0 str0" d="M10256.12 9499.01c16.52,-7.21 35.84,-1.65 46,13.24 10.15,14.9 8.28,34.91 -4.47,47.66 -12.74,12.75 -32.76,14.62 -47.65,4.47 -14.9,-10.16 -20.46,-29.48 -13.25,-46l-331.26 0c7.21,16.52 1.65,35.84 -13.24,46 -14.9,10.15 -34.91,8.28 -47.66,-4.47 -12.75,-12.74 -14.62,-32.76 -4.47,-47.65 10.16,-14.9 29.48,-20.46 46,-13.25l0 -571.26c-16.52,7.21 -35.84,1.65 -46,-13.24 -10.15,-14.9 -8.28,-34.91 4.47,-47.66 12.74,-12.75 32.76,-14.62 47.65,-4.47 14.9,10.16 20.46,29.48 13.25,46l331.26 0c-7.21,-16.52 -1.65,-35.84 13.24,-46 14.9,-10.15 34.91,-8.28 47.66,4.47 12.75,12.74 14.62,32.76 4.47,47.65 -10.16,14.9 -29.48,20.46 -46,13.25l0 571.26z"/>
   <path class="fil0 str0" d="M9721.12 10813.38c-66.26,0.04 -129.83,-26.24 -176.71,-73.07 -46.89,-46.82 -73.25,-110.67 -73.29,-176.93l0 -2700c-0.04,-66.26 26.24,-129.83 73.07,-176.71 46.82,-46.89 110.67,-73.25 176.93,-73.29l165 0 0 640 370 0 0 -640 3230 0 0 640 370 0 0 -640 165 0c66.26,-0.04 129.83,26.24 176.71,73.07 46.89,46.82 73.25,110.67 73.29,176.93l0 2700c0.04,66.26 -26.24,129.83 -73.07,176.71 -46.82,46.89 -110.67,73.25 -176.93,73.29l-165 0 0 -640 -370 0 0 640 -3230 0 0 -640 -370 0 0 640 -165 0z"/>
  </g>
  <g id="_1660703070288">
   <path class="fil0 str0" d="M12946.12 1602.94c0,-593.71 -481.29,-1075 -1075,-1075 -593.7,0 -1075,481.29 -1075,1075 0,593.7 481.29,1075 1075,1075 593.7,0 1075,-481.29 1075,-1074.99z"/>
   <path class="fil0 str0" d="M13486.12 1317.31c-16.52,7.21 -35.84,1.65 -46,-13.24 -10.15,-14.9 -8.28,-34.91 4.47,-47.66 12.74,-12.75 32.76,-14.62 47.65,-4.47 14.9,10.16 20.46,29.48 13.25,46l331.26 0c-7.21,-16.52 -1.65,-35.84 13.24,-46 14.9,-10.15 34.91,-8.28 47.66,4.47 12.75,12.74 14.62,32.76 4.47,47.65 -10.16,14.9 -29.48,20.46 -46,13.25l0 571.26c16.52,-7.21 35.84,-1.65 46,13.24 10.15,14.9 8.28,34.91 -4.47,47.66 -12.74,12.75 -32.76,14.62 -47.65,4.47 -14.9,-10.16 -20.46,-29.48 -13.25,-46l-331.26 0c7.21,16.52 1.65,35.84 -13.24,46 -14.9,10.15 -34.91,8.28 -47.66,-4.47 -12.75,-12.74 -14.62,-32.76 -4.47,-47.65 10.16,-14.9 29.48,-20.46 46,-13.25l0 -571.26z"/>
   <path class="fil0 str0" d="M10256.12 1888.57c16.52,-7.21 35.84,-1.65 46,13.24 10.15,14.9 8.28,34.91 -4.47,47.66 -12.74,12.75 -32.76,14.62 -47.65,4.47 -14.9,-10.16 -20.46,-29.48 -13.25,-46l-331.26 0c7.21,16.52 1.65,35.84 -13.24,46 -14.9,10.15 -34.91,8.28 -47.66,-4.47 -12.75,-12.74 -14.62,-32.76 -4.47,-47.65 10.16,-14.9 29.48,-20.46 46,-13.25l0 -571.26c-16.52,7.21 -35.84,1.65 -46,-13.24 -10.15,-14.9 -8.28,-34.91 4.47,-47.66 12.74,-12.75 32.76,-14.62 47.65,-4.47 14.9,10.16 20.46,29.48 13.25,46l331.26 0c-7.21,-16.52 -1.65,-35.84 13.24,-46 14.9,-10.15 34.91,-8.28 47.66,4.47 12.75,12.74 14.62,32.76 4.47,47.65 -10.16,14.9 -29.48,20.46 -46,13.25l0 571.26z"/>
   <path class="fil0 str0" d="M9721.12 3202.94c-66.26,0.04 -129.83,-26.24 -176.71,-73.07 -46.89,-46.82 -73.25,-110.67 -73.29,-176.93l0 -2700c-0.04,-66.26 26.24,-129.83 73.07,-176.71 46.82,-46.89 110.67,-73.25 176.93,-73.29l165 0 0 640 370 0 0 -640 3230 0 0 640 370 0 0 -640 165 0c66.26,-0.04 129.83,26.24 176.71,73.07 46.89,46.82 73.25,110.67 73.29,176.93l0 2700c0.04,66.26 -26.24,129.83 -73.07,176.71 -46.82,46.89 -110.67,73.25 -176.93,73.29l-165 0 0 -640 -370 0 0 640 -3230 0 0 -640 -370 0 0 640 -165 0z"/>
  </g>
  <g id="_1660572796368">
   <path class="fil0 str0" d="M3470.61 23122.54c0,-593.71 -481.29,-1075 -1075,-1075 -593.7,0 -1075,481.29 -1075,1075 0,593.7 481.29,1075 1075,1075 593.7,0 1075,-481.29 1075,-1074.99z"/>
   <path class="fil0 str0" d="M4010.61 22836.91c-16.52,7.21 -35.84,1.65 -46,-13.24 -10.15,-14.9 -8.28,-34.91 4.47,-47.66 12.74,-12.75 32.76,-14.62 47.65,-4.47 14.9,10.16 20.46,29.48 13.25,46l331.26 0c-7.21,-16.52 -1.65,-35.84 13.24,-46 14.9,-10.15 34.91,-8.28 47.66,4.47 12.75,12.74 14.62,32.76 4.47,47.65 -10.16,14.9 -29.48,20.46 -46,13.25l0 571.26c16.52,-7.21 35.84,-1.65 46,13.24 10.15,14.9 8.28,34.91 -4.47,47.66 -12.74,12.75 -32.76,14.62 -47.65,4.47 -14.9,-10.16 -20.46,-29.48 -13.25,-46l-331.26 0c7.21,16.52 1.65,35.84 -13.24,46 -14.9,10.15 -34.91,8.28 -47.66,-4.47 -12.75,-12.74 -14.62,-32.76 -4.47,-47.65 10.16,-14.9 29.48,-20.46 46,-13.25l0 -571.26z"/>
   <path class="fil0 str0" d="M780.61 23408.17c16.52,-7.21 35.84,-1.65 46,13.24 10.15,14.9 8.28,34.91 -4.47,47.66 -12.74,12.75 -32.76,14.62 -47.65,4.47 -14.9,-10.16 -20.46,-29.48 -13.25,-46l-331.26 0c7.21,16.52 1.65,35.84 -13.24,46 -14.9,10.15 -34.91,8.28 -47.66,-4.47 -12.75,-12.74 -14.62,-32.76 -4.47,-47.65 10.16,-14.9 29.48,-20.46 46,-13.25l0 -571.26c-16.52,7.21 -35.84,1.65 -46,-13.24 -10.15,-14.9 -8.28,-34.91 4.47,-47.66 12.74,-12.75 32.76,-14.62 47.65,-4.47 14.9,10.16 20.46,29.48 13.25,46l331.26 0c-7.21,-16.52 -1.65,-35.84 13.24,-46 14.9,-10.15 34.91,-8.28 47.66,4.47 12.75,12.74 14.62,32.76 4.47,47.65 -10.16,14.9 -29.48,20.46 -46,13.25l0 571.26z"/>
   <path class="fil0 str0" d="M245.61 24722.54c-66.26,0.04 -129.83,-26.24 -176.71,-73.07 -46.89,-46.82 -73.25,-110.67 -73.29,-176.93l0 -2700c-0.04,-66.26 26.24,-129.83 73.07,-176.71 46.82,-46.89 110.67,-73.25 176.93,-73.29l165 0 0 640 370 0 0 -640 3230 0 0 640 370 0 0 -640 165 0c66.26,-0.04 129.83,26.24 176.71,73.07 46.89,46.82 73.25,110.67 73.29,176.93l0 2700c0.04,66.26 -26.24,129.83 -73.07,176.71 -46.82,46.89 -110.67,73.25 -176.93,73.29l-165 0 0 -640 -370 0 0 640 -3230 0 0 -640 -370 0 0 640 -165 0z"/>
  </g>
  <g id="_1660572794000">
   <path class="fil0 str0" d="M3470.61 8776.14c0,-593.71 -481.29,-1075 -1075,-1075 -593.7,0 -1075,481.29 -1075,1075 0,593.7 481.29,1075 1075,1075 593.7,0 1075,-481.29 1075,-1074.99z"/>
   <path class="fil0 str0" d="M4010.61 8490.51c-16.52,7.21 -35.84,1.65 -46,-13.24 -10.15,-14.9 -8.28,-34.91 4.47,-47.66 12.74,-12.75 32.76,-14.62 47.65,-4.47 14.9,10.16 20.46,29.48 13.25,46l331.26 0c-7.21,-16.52 -1.65,-35.84 13.24,-46 14.9,-10.15 34.91,-8.28 47.66,4.47 12.75,12.74 14.62,32.76 4.47,47.65 -10.16,14.9 -29.48,20.46 -46,13.25l0 571.26c16.52,-7.21 35.84,-1.65 46,13.24 10.15,14.9 8.28,34.91 -4.47,47.66 -12.74,12.75 -32.76,14.62 -47.65,4.47 -14.9,-10.16 -20.46,-29.48 -13.25,-46l-331.26 0c7.21,16.52 1.65,35.84 -13.24,46 -14.9,10.15 -34.91,8.28 -47.66,-4.47 -12.75,-12.74 -14.62,-32.76 -4.47,-47.65 10.16,-14.9 29.48,-20.46 46,-13.25l0 -571.26z"/>
   <path class="fil0 str0" d="M780.61 9061.77c16.52,-7.21 35.84,-1.65 46,13.24 10.15,14.9 8.28,34.91 -4.47,47.66 -12.74,12.75 -32.76,14.62 -47.65,4.47 -14.9,-10.16 -20.46,-29.48 -13.25,-46l-331.26 0c7.21,16.52 1.65,35.84 -13.24,46 -14.9,10.15 -34.91,8.28 -47.66,-4.47 -12.75,-12.74 -14.62,-32.76 -4.47,-47.65 10.16,-14.9 29.48,-20.46 46,-13.25l0 -571.26c-16.52,7.21 -35.84,1.65 -46,-13.24 -10.15,-14.9 -8.28,-34.91 4.47,-47.66 12.74,-12.75 32.76,-14.62 47.65,-4.47 14.9,10.16 20.46,29.48 13.25,46l331.26 0c-7.21,-16.52 -1.65,-35.84 13.24,-46 14.9,-10.15 34.91,-8.28 47.66,4.47 12.75,12.74 14.62,32.76 4.47,47.65 -10.16,14.9 -29.48,20.46 -46,13.25l0 571.26z"/>
   <path class="fil0 str0" d="M245.61 10376.14c-66.26,0.04 -129.83,-26.24 -176.71,-73.07 -46.89,-46.82 -73.25,-110.67 -73.29,-176.93l0 -2700c-0.04,-66.26 26.24,-129.83 73.07,-176.71 46.82,-46.89 110.67,-73.25 176.93,-73.29l165 0 0 640 370 0 0 -640 3230 0 0 640 370 0 0 -640 165 0c66.26,-0.04 129.83,26.24 176.71,73.07 46.89,46.82 73.25,110.67 73.29,176.93l0 2700c0.04,66.26 -26.24,129.83 -73.07,176.71 -46.82,46.89 -110.67,73.25 -176.93,73.29l-165 0 0 -640 -370 0 0 640 -3230 0 0 -640 -370 0 0 640 -165 0z"/>
  </g>
  <g id="_1660572792624">
   <path class="fil0 str0" d="M3470.61 15949.34c0,-593.71 -481.29,-1075 -1075,-1075 -593.7,0 -1075,481.29 -1075,1075 0,593.7 481.29,1075 1075,1075 593.7,0 1075,-481.29 1075,-1074.99z"/>
   <path class="fil0 str0" d="M4010.61 15663.71c-16.52,7.21 -35.84,1.65 -46,-13.24 -10.15,-14.9 -8.28,-34.91 4.47,-47.66 12.74,-12.75 32.76,-14.62 47.65,-4.47 14.9,10.16 20.46,29.48 13.25,46l331.26 0c-7.21,-16.52 -1.65,-35.84 13.24,-46 14.9,-10.15 34.91,-8.28 47.66,4.47 12.75,12.74 14.62,32.76 4.47,47.65 -10.16,14.9 -29.48,20.46 -46,13.25l0 571.26c16.52,-7.21 35.84,-1.65 46,13.24 10.15,14.9 8.28,34.91 -4.47,47.66 -12.74,12.75 -32.76,14.62 -47.65,4.47 -14.9,-10.16 -20.46,-29.48 -13.25,-46l-331.26 0c7.21,16.52 1.65,35.84 -13.24,46 -14.9,10.15 -34.91,8.28 -47.66,-4.47 -12.75,-12.74 -14.62,-32.76 -4.47,-47.65 10.16,-14.9 29.48,-20.46 46,-13.25l0 -571.26z"/>
   <path class="fil0 str0" d="M780.61 16234.97c16.52,-7.21 35.84,-1.65 46,13.24 10.15,14.9 8.28,34.91 -4.47,47.66 -12.74,12.75 -32.76,14.62 -47.65,4.47 -14.9,-10.16 -20.46,-29.48 -13.25,-46l-331.26 0c7.21,16.52 1.65,35.84 -13.24,46 -14.9,10.15 -34.91,8.28 -47.66,-4.47 -12.75,-12.74 -14.62,-32.76 -4.47,-47.65 10.16,-14.9 29.48,-20.46 46,-13.25l0 -571.26c-16.52,7.21 -35.84,1.65 -46,-13.24 -10.15,-14.9 -8.28,-34.91 4.47,-47.66 12.74,-12.75 32.76,-14.62 47.65,-4.47 14.9,10.16 20.46,29.48 13.25,46l331.26 0c-7.21,-16.52 -1.65,-35.84 13.24,-46 14.9,-10.15 34.91,-8.28 47.66,4.47 12.75,12.74 14.62,32.76 4.47,47.65 -10.16,14.9 -29.48,20.46 -46,13.25l0 571.26z"/>
   <path class="fil0 str0" d="M245.61 17549.34c-66.26,0.04 -129.83,-26.24 -176.71,-73.07 -46.89,-46.82 -73.25,-110.67 -73.29,-176.93l0 -2700c-0.04,-66.26 26.24,-129.83 73.07,-176.71 46.82,-46.89 110.67,-73.25 176.93,-73.29l165 0 0 640 370 0 0 -640 3230 0 0 640 370 0 0 -640 165 0c66.26,-0.04 129.83,26.24 176.71,73.07 46.89,46.82 73.25,110.67 73.29,176.93l0 2700c0.04,66.26 -26.24,129.83 -73.07,176.71 -46.82,46.89 -110.67,73.25 -176.93,73.29l-165 0 0 -640 -370 0 0 640 -3230 0 0 -640 -370 0 0 640 -165 0z"/>
  </g>
  <g id="_1660572791696">
   <path class="fil0 str0" d="M3470.61 1602.94c0,-593.71 -481.29,-1075 -1075,-1075 -593.7,0 -1075,481.29 -1075,1075 0,593.7 481.29,1075 1075,1075 593.7,0 1075,-481.29 1075,-1074.99z"/>
   <path class="fil0 str0" d="M4010.61 1317.31c-16.52,7.21 -35.84,1.65 -46,-13.24 -10.15,-14.9 -8.28,-34.91 4.47,-47.66 12.74,-12.75 32.76,-14.62 47.65,-4.47 14.9,10.16 20.46,29.48 13.25,46l331.26 0c-7.21,-16.52 -1.65,-35.84 13.24,-46 14.9,-10.15 34.91,-8.28 47.66,4.47 12.75,12.74 14.62,32.76 4.47,47.65 -10.16,14.9 -29.48,20.46 -46,13.25l0 571.26c16.52,-7.21 35.84,-1.65 46,13.24 10.15,14.9 8.28,34.91 -4.47,47.66 -12.74,12.75 -32.76,14.62 -47.65,4.47 -14.9,-10.16 -20.46,-29.48 -13.25,-46l-331.26 0c7.21,16.52 1.65,35.84 -13.24,46 -14.9,10.15 -34.91,8.28 -47.66,-4.47 -12.75,-12.74 -14.62,-32.76 -4.47,-47.65 10.16,-14.9 29.48,-20.46 46,-13.25l0 -571.26z"/>
   <path class="fil0 str0" d="M780.61 1888.57c16.52,-7.21 35.84,-1.65 46,13.24 10.15,14.9 8.28,34.91 -4.47,47.66 -12.74,12.75 -32.76,14.62 -47.65,4.47 -14.9,-10.16 -20.46,-29.48 -13.25,-46l-331.26 0c7.21,16.52 1.65,35.84 -13.24,46 -14.9,10.15 -34.91,8.28 -47.66,-4.47 -12.75,-12.74 -14.62,-32.76 -4.47,-47.65 10.16,-14.9 29.48,-20.46 46,-13.25l0 -571.26c-16.52,7.21 -35.84,1.65 -46,-13.24 -10.15,-14.9 -8.28,-34.91 4.47,-47.66 12.74,-12.75 32.76,-14.62 47.65,-4.47 14.9,10.16 20.46,29.48 13.25,46l331.26 0c-7.21,-16.52 -1.65,-35.84 13.24,-46 14.9,-10.15 34.91,-8.28 47.66,4.47 12.75,12.74 14.62,32.76 4.47,47.65 -10.16,14.9 -29.48,20.46 -46,13.25l0 571.26z"/>
   <path class="fil0 str0" d="M245.61 3202.94c-66.26,0.04 -129.83,-26.24 -176.71,-73.07 -46.89,-46.82 -73.25,-110.67 -73.29,-176.93l0 -2700c-0.04,-66.26 26.24,-129.83 73.07,-176.71 46.82,-46.89 110.67,-73.25 176.93,-73.29l165 0 0 640 370 0 0 -640 3230 0 0 640 370 0 0 -640 165 0c66.26,-0.04 129.83,26.24 176.71,73.07 46.89,46.82 73.25,110.67 73.29,176.93l0 2700c0.04,66.26 -26.24,129.83 -73.07,176.71 -46.82,46.89 -110.67,73.25 -176.93,73.29l-165 0 0 -640 -370 0 0 640 -3230 0 0 -640 -370 0 0 640 -165 0z"/>
  </g>
 </g>
 <g id="Ebene_x0020_1">
  <metadata id="CorelCorpID_1Corel-Layer"/>
  <g id="_1660572789168">
   <path class="fil0 str0" d="M13813.37 12871.75c0,-593.71 -481.29,-1075 -1075,-1075 -593.7,0 -1075,481.29 -1075,1075 0,593.7 481.29,1075 1075,1075 593.7,0 1075,-481.29 1075,-1074.99z"/>
   <path class="fil0 str0" d="M10790.87 13176.75c0.01,15.18 -9.12,28.87 -23.14,34.68 -14.02,5.82 -30.16,2.62 -40.9,-8.11 -10.74,-10.72 -13.96,-26.86 -8.16,-40.88 5.8,-14.03 19.52,-23.18 34.7,-23.19l0 -535c-15.18,0.01 -28.87,-9.12 -34.68,-23.14 -5.82,-14.02 -2.62,-30.16 8.11,-40.9 10.72,-10.74 26.86,-13.96 40.88,-8.16 14.03,5.8 23.18,19.52 23.19,34.7l695 0c-0.01,-15.18 9.12,-28.87 23.14,-34.68 14.02,-5.82 30.16,-2.62 40.9,8.11 10.74,10.72 13.96,26.86 8.16,40.88 -5.8,14.03 -19.52,23.18 -34.7,23.19l0 553.13c16.52,-7.21 35.84,-1.65 46,13.24 10.15,14.9 8.28,34.91 -4.47,47.66 -12.74,12.75 -32.76,14.62 -47.65,4.47 -14.9,-10.16 -20.46,-29.48 -13.25,-46l-713.13 0z"/>
   <path class="fil0 str0" d="M14723.37 13139.25c15.18,-0.01 28.87,9.12 34.68,23.14 5.82,14.02 2.62,30.16 -8.11,40.9 -10.72,10.74 -26.86,13.96 -40.88,8.16 -14.03,-5.8 -23.18,-19.52 -23.19,-34.7l-713.13 0c7.21,16.52 1.65,35.84 -13.24,46 -14.9,10.15 -34.91,8.28 -47.66,-4.47 -12.75,-12.74 -14.62,-32.76 -4.47,-47.65 10.16,-14.9 29.48,-20.46 46,-13.25l0 -553.13c-15.18,0.01 -28.87,-9.12 -34.68,-23.14 -5.82,-14.02 -2.62,-30.16 8.11,-40.9 10.72,-10.74 26.86,-13.96 40.88,-8.16 14.03,5.8 23.18,19.52 23.19,34.7l695 0c-0.01,-15.18 9.12,-28.87 23.14,-34.68 14.02,-5.82 30.16,-2.62 40.9,8.11 10.74,10.72 13.96,26.86 8.16,40.88 -5.8,14.03 -19.52,23.18 -34.7,23.19l0 535z"/>
   <path class="fil0 str0" d="M15121.4 14312.3c-37.31,96.09 -129.95,159.42 -233.03,159.45l-165 0 0 -640 -770 0 0 640 -2430 0 0 -640 -770 0 0 640 -165 0c-103.08,0.03 -195.66,-63.38 -233.03,-159.45l-806.05 -1235.67c-81.23,-124.44 -81.16,-285.28 0,-409.76l806.05 -1235.67c37.31,-96.09 129.95,-159.42 233.03,-159.45l165 0 0 640 770 0 0 -640 2430 0 0 640 770 0 0 -640 165 0c103.08,-0.03 195.66,63.38 233.03,159.45l806.05 1235.67c81.23,124.44 81.16,285.28 0,409.76l-806.05 1235.67z"/>
   <path class="fil0 str0" d="M15688.37 12871.75c0,-41.42 -33.58,-75 -75,-75 -41.42,0 -75,33.58 -75,75 0,41.42 33.58,75 75,75 41.42,0 75,-33.58 75,-75z"/>
   <path class="fil0 str0" d="M9938.37 12871.75c0,-41.42 -33.58,-75 -75,-75 -41.42,0 -75,33.58 -75,75 0,41.42 33.58,75 75,75 41.42,0 75,-33.58 75,-75z"/>
  </g>
  <g id="_1660572783248">
   <g>
    <path class="fil0 str0" d="M6181.85 2804.4l0 400 -640 0 0 -400c1060.86,-155.98 2139.13,-155.95 3200,0l0 400 -640 0 0 -400 -640 0 0 400 -640 0 0 -400 -640 0z"/>
    <path class="fil0 str0" d="M5541.85 2487.92l0 -607.14 640 0 0 400 640 0 0 -400 640 0 0 400 640 0 0 -400 640 0 0 607.14c-1061.98,-142.86 -2138.03,-142.88 -3200,0z"/>
    <polygon class="fil0 str0" points="8741.85,2.93 8741.85,1569.91 5541.85,1569.91 5541.85,2.93 6181.85,2.93 6181.85,402.93 6821.85,402.93 6821.85,2.93 7461.85,2.93 7461.85,402.93 8101.85,402.93 8101.85,2.93 "/>
   </g>
   <g>
    <path class="fil0 str0" d="M3470.61 5168.76c0,-593.71 -481.29,-1075 -1075,-1075 -593.7,0 -1075,481.29 -1075,1075 0,593.7 481.29,1075 1075,1075 593.7,0 1075,-481.29 1075,-1074.99z"/>
    <path class="fil0 str0" d="M448.11 5473.76c0.01,15.18 -9.12,28.87 -23.14,34.68 -14.02,5.82 -30.16,2.62 -40.9,-8.11 -10.74,-10.72 -13.96,-26.86 -8.16,-40.88 5.8,-14.03 19.52,-23.18 34.7,-23.19l0 -535c-15.18,0.01 -28.87,-9.12 -34.68,-23.14 -5.82,-14.02 -2.62,-30.16 8.11,-40.9 10.72,-10.74 26.86,-13.96 40.88,-8.16 14.03,5.8 23.18,19.52 23.19,34.7l695 0c-0.01,-15.18 9.12,-28.87 23.14,-34.68 14.02,-5.82 30.16,-2.62 40.9,8.11 10.74,10.72 13.96,26.86 8.16,40.88 -5.8,14.03 -19.52,23.18 -34.7,23.19l0 553.13c16.52,-7.21 35.84,-1.65 46,13.24 10.15,14.9 8.28,34.91 -4.47,47.66 -12.74,12.75 -32.76,14.62 -47.65,4.47 -14.9,-10.16 -20.46,-29.48 -13.25,-46l-713.13 0z"/>
    <path class="fil0 str0" d="M4380.61 5436.26c15.18,-0.01 28.87,9.12 34.68,23.14 5.82,14.02 2.62,30.16 -8.11,40.9 -10.72,10.74 -26.86,13.96 -40.88,8.16 -14.03,-5.8 -23.18,-19.52 -23.19,-34.7l-713.13 0c7.21,16.52 1.65,35.84 -13.24,46 -14.9,10.15 -34.91,8.28 -47.66,-4.47 -12.75,-12.74 -14.62,-32.76 -4.47,-47.65 10.16,-14.9 29.48,-20.46 46,-13.25l0 -553.13c-15.18,0.01 -28.87,-9.12 -34.68,-23.14 -5.82,-14.02 -2.62,-30.16 8.11,-40.9 10.72,-10.74 26.86,-13.96 40.88,-8.16 14.03,5.8 23.18,19.52 23.19,34.7l695 0c-0.01,-15.18 9.12,-28.87 23.14,-34.68 14.02,-5.82 30.16,-2.62 40.9,8.11 10.74,10.72 13.96,26.86 8.16,40.88 -5.8,14.03 -19.52,23.18 -34.7,23.19l0 535z"/>
    <path class="fil0 str0" d="M4795.61 6518.76c0.04,66.26 -26.24,129.83 -73.07,176.71 -46.82,46.89 -110.67,73.25 -176.93,73.29l-165 0 0 -640 -770 0 0 640 -2430 0 0 -640 -770 0 0 640 -165 0c-66.26,0.04 -129.83,-26.24 -176.71,-73.07 -46.89,-46.82 -73.25,-110.67 -73.29,-176.93l0 -2700c-0.04,-66.26 26.24,-129.83 73.07,-176.71 46.82,-46.89 110.67,-73.25 176.93,-73.29l165 0 0 640 770 0 0 -640 2430 0 0 640 770 0 0 -640 165 0c66.26,-0.04 129.83,26.24 176.71,73.07 46.89,46.82 73.25,110.67 73.29,176.93l0 2700z"/>
   </g>
   <g>
    <path class="fil0 str0" d="M6181.85 6368.77l0 400 -640 0 0 -400c1060.86,-155.98 2139.13,-155.95 3200,0l0 400 -640 0 0 -400 -640 0 0 400 -640 0 0 -400 -640 0z"/>
    <path class="fil0 str0" d="M5541.85 6052.29l0 -607.14 640 0 0 400 640 0 0 -400 640 0 0 400 640 0 0 -400 640 0 0 607.14c-1061.98,-142.86 -2138.03,-142.88 -3200,0z"/>
    <polygon class="fil0 str0" points="8741.85,3567.3 8741.85,5134.28 5541.85,5134.28 5541.85,3567.3 6181.85,3567.3 6181.85,3967.3 6821.85,3967.3 6821.85,3567.3 7461.85,3567.3 7461.85,3967.3 8101.85,3967.3 8101.85,3567.3 "/>
   </g>
  </g>
  <g id="_1660572779312">
   <g>
    <path class="fil0 str0" d="M15674.64 2804.4l0 400 -640 0 0 -400c1060.86,-155.98 2139.13,-155.95 3200,0l0 400 -640 0 0 -400 -640 0 0 400 -640 0 0 -400 -640 0z"/>
    <path class="fil0 str0" d="M15034.64 2487.92l0 -607.14 640 0 0 400 640 0 0 -400 640 0 0 400 640 0 0 -400 640 0 0 607.14c-1061.98,-142.86 -2138.03,-142.88 -3200,0z"/>
    <polygon class="fil0 str0" points="18234.64,2.93 18234.64,1569.91 15034.64,1569.91 15034.64,2.93 15674.64,2.93 15674.64,402.93 16314.64,402.93 16314.64,2.93 16954.64,2.93 16954.64,402.93 17594.64,402.93 17594.64,2.93 "/>
   </g>
   <g>
    <path class="fil0 str0" d="M12963.4 5168.76c0,-593.71 -481.29,-1075 -1075,-1075 -593.7,0 -1075,481.29 -1075,1075 0,593.7 481.29,1075 1075,1075 593.7,0 1075,-481.29 1075,-1074.99z"/>
    <path class="fil0 str0" d="M9940.9 5473.76c0.01,15.18 -9.12,28.87 -23.14,34.68 -14.02,5.82 -30.16,2.62 -40.9,-8.11 -10.74,-10.72 -13.96,-26.86 -8.16,-40.88 5.8,-14.03 19.52,-23.18 34.7,-23.19l0 -535c-15.18,0.01 -28.87,-9.12 -34.68,-23.14 -5.82,-14.02 -2.62,-30.16 8.11,-40.9 10.72,-10.74 26.86,-13.96 40.88,-8.16 14.03,5.8 23.18,19.52 23.19,34.7l695 0c-0.01,-15.18 9.12,-28.87 23.14,-34.68 14.02,-5.82 30.16,-2.62 40.9,8.11 10.74,10.72 13.96,26.86 8.16,40.88 -5.8,14.03 -19.52,23.18 -34.7,23.19l0 553.13c16.52,-7.21 35.84,-1.65 46,13.24 10.15,14.9 8.28,34.91 -4.47,47.66 -12.74,12.75 -32.76,14.62 -47.65,4.47 -14.9,-10.16 -20.46,-29.48 -13.25,-46l-713.13 0z"/>
    <path class="fil0 str0" d="M13873.4 5436.26c15.18,-0.01 28.87,9.12 34.68,23.14 5.82,14.02 2.62,30.16 -8.11,40.9 -10.72,10.74 -26.86,13.96 -40.88,8.16 -14.03,-5.8 -23.18,-19.52 -23.19,-34.7l-713.13 0c7.21,16.52 1.65,35.84 -13.24,46 -14.9,10.15 -34.91,8.28 -47.66,-4.47 -12.75,-12.74 -14.62,-32.76 -4.47,-47.65 10.16,-14.9 29.48,-20.46 46,-13.25l0 -553.13c-15.18,0.01 -28.87,-9.12 -34.68,-23.14 -5.82,-14.02 -2.62,-30.16 8.11,-40.9 10.72,-10.74 26.86,-13.96 40.88,-8.16 14.03,5.8 23.18,19.52 23.19,34.7l695 0c-0.01,-15.18 9.12,-28.87 23.14,-34.68 14.02,-5.82 30.16,-2.62 40.9,8.11 10.74,10.72 13.96,26.86 8.16,40.88 -5.8,14.03 -19.52,23.18 -34.7,23.19l0 535z"/>
    <path class="fil0 str0" d="M14288.4 6518.76c0.04,66.26 -26.24,129.83 -73.07,176.71 -46.82,46.89 -110.67,73.25 -176.93,73.29l-165 0 0 -640 -770 0 0 640 -2430 0 0 -640 -770 0 0 640 -165 0c-66.26,0.04 -129.83,-26.24 -176.71,-73.07 -46.89,-46.82 -73.25,-110.67 -73.29,-176.93l0 -2700c-0.04,-66.26 26.24,-129.83 73.07,-176.71 46.82,-46.89 110.67,-73.25 176.93,-73.29l165 0 0 640 770 0 0 -640 2430 0 0 640 770 0 0 -640 165 0c66.26,-0.04 129.83,26.24 176.71,73.07 46.89,46.82 73.25,110.67 73.29,176.93l0 2700z"/>
   </g>
   <g>
    <path class="fil0 str0" d="M15674.64 6368.77l0 400 -640 0 0 -400c1060.86,-155.98 2139.13,-155.95 3200,0l0 400 -640 0 0 -400 -640 0 0 400 -640 0 0 -400 -640 0z"/>
    <path class="fil0 str0" d="M15034.64 6052.29l0 -607.14 640 0 0 400 640 0 0 -400 640 0 0 400 640 0 0 -400 640 0 0 607.14c-1061.98,-142.86 -2138.03,-142.88 -3200,0z"/>
    <polygon class="fil0 str0" points="18234.64,3567.3 18234.64,5134.28 15034.64,5134.28 15034.64,3567.3 15674.64,3567.3 15674.64,3967.3 16314.64,3967.3 16314.64,3567.3 16954.64,3567.3 16954.64,3967.3 17594.64,3967.3 17594.64,3567.3 "/>
   </g>
  </g>
  <g id="_1660572777744">
   <g>
    <path class="fil0 str0" d="M17267.36 10414.84l0 400 -640 0 0 -400c1060.86,-155.98 2139.13,-155.95 3200,0l0 400 -640 0 0 -400 -640 0 0 400 -640 0 0 -400 -640 0z"/>
    <path class="fil0 str0" d="M16627.36 10098.36l0 -607.14 640 0 0 400 640 0 0 -400 640 0 0 400 640 0 0 -400 640 0 0 607.14c-1061.98,-142.86 -2138.03,-142.88 -3200,0z"/>
    <polygon class="fil0 str0" points="19827.36,7613.37 19827.36,9180.35 16627.36,9180.35 16627.36,7613.37 17267.36,7613.37 17267.36,8013.37 17907.36,8013.37 17907.36,7613.37 18547.36,7613.37 18547.36,8013.37 19187.36,8013.37 19187.36,7613.37 "/>
   </g>
   <g>
    <path class="fil0 str0" d="M17267.36 13979.21l0 400 -640 0 0 -400c1060.86,-155.98 2139.13,-155.95 3200,0l0 400 -640 0 0 -400 -640 0 0 400 -640 0 0 -400 -640 0z"/>
    <path class="fil0 str0" d="M16627.36 13662.73l0 -607.14 640 0 0 400 640 0 0 -400 640 0 0 400 640 0 0 -400 640 0 0 607.14c-1061.98,-142.86 -2138.03,-142.88 -3200,0z"/>
    <polygon class="fil0 str0" points="19827.36,11177.74 19827.36,12744.72 16627.36,12744.72 16627.36,11177.74 17267.36,11177.74 17267.36,11577.74 17907.36,11577.74 17907.36,11177.74 18547.36,11177.74 18547.36,11577.74 19187.36,11577.74 19187.36,11177.74 "/>
   </g>
  </g>
  <g id="_1660572770576">
   <g>
    <path class="fil0 str0" d="M6181.85 9977.6l0 400 -640 0 0 -400c1060.86,-155.98 2139.13,-155.95 3200,0l0 400 -640 0 0 -400 -640 0 0 400 -640 0 0 -400 -640 0z"/>
    <path class="fil0 str0" d="M5541.85 9661.12l0 -607.14 640 0 0 400 640 0 0 -400 640 0 0 400 640 0 0 -400 640 0 0 607.14c-1061.98,-142.86 -2138.03,-142.88 -3200,0z"/>
    <polygon class="fil0 str0" points="8741.85,7176.13 8741.85,8743.11 5541.85,8743.11 5541.85,7176.13 6181.85,7176.13 6181.85,7576.13 6821.85,7576.13 6821.85,7176.13 7461.85,7176.13 7461.85,7576.13 8101.85,7576.13 8101.85,7176.13 "/>
   </g>
   <g>
    <path class="fil0 str0" d="M3470.61 12341.96c0,-593.71 -481.29,-1075 -1075,-1075 -593.7,0 -1075,481.29 -1075,1075 0,593.7 481.29,1075 1075,1075 593.7,0 1075,-481.29 1075,-1074.99z"/>
    <path class="fil0 str0" d="M448.11 12646.96c0.01,15.18 -9.12,28.87 -23.14,34.68 -14.02,5.82 -30.16,2.62 -40.9,-8.11 -10.74,-10.72 -13.96,-26.86 -8.16,-40.88 5.8,-14.03 19.52,-23.18 34.7,-23.19l0 -535c-15.18,0.01 -28.87,-9.12 -34.68,-23.14 -5.82,-14.02 -2.62,-30.16 8.11,-40.9 10.72,-10.74 26.86,-13.96 40.88,-8.16 14.03,5.8 23.18,19.52 23.19,34.7l695 0c-0.01,-15.18 9.12,-28.87 23.14,-34.68 14.02,-5.82 30.16,-2.62 40.9,8.11 10.74,10.72 13.96,26.86 8.16,40.88 -5.8,14.03 -19.52,23.18 -34.7,23.19l0 553.13c16.52,-7.21 35.84,-1.65 46,13.24 10.15,14.9 8.28,34.91 -4.47,47.66 -12.74,12.75 -32.76,14.62 -47.65,4.47 -14.9,-10.16 -20.46,-29.48 -13.25,-46l-713.13 0z"/>
    <path class="fil0 str0" d="M4380.61 12609.46c15.18,-0.01 28.87,9.12 34.68,23.14 5.82,14.02 2.62,30.16 -8.11,40.9 -10.72,10.74 -26.86,13.96 -40.88,8.16 -14.03,-5.8 -23.18,-19.52 -23.19,-34.7l-713.13 0c7.21,16.52 1.65,35.84 -13.24,46 -14.9,10.15 -34.91,8.28 -47.66,-4.47 -12.75,-12.74 -14.62,-32.76 -4.47,-47.65 10.16,-14.9 29.48,-20.46 46,-13.25l0 -553.13c-15.18,0.01 -28.87,-9.12 -34.68,-23.14 -5.82,-14.02 -2.62,-30.16 8.11,-40.9 10.72,-10.74 26.86,-13.96 40.88,-8.16 14.03,5.8 23.18,19.52 23.19,34.7l695 0c-0.01,-15.18 9.12,-28.87 23.14,-34.68 14.02,-5.82 30.16,-2.62 40.9,8.11 10.74,10.72 13.96,26.86 8.16,40.88 -5.8,14.03 -19.52,23.18 -34.7,23.19l0 535z"/>
    <path class="fil0 str0" d="M4795.61 13691.96c0.04,66.26 -26.24,129.83 -73.07,176.71 -46.82,46.89 -110.67,73.25 -176.93,73.29l-165 0 0 -640 -770 0 0 640 -2430 0 0 -640 -770 0 0 640 -165 0c-66.26,0.04 -129.83,-26.24 -176.71,-73.07 -46.89,-46.82 -73.25,-110.67 -73.29,-176.93l0 -2700c-0.04,-66.26 26.24,-129.83 73.07,-176.71 46.82,-46.89 110.67,-73.25 176.93,-73.29l165 0 0 640 770 0 0 -640 2430 0 0 640 770 0 0 -640 165 0c66.26,-0.04 129.83,26.24 176.71,73.07 46.89,46.82 73.25,110.67 73.29,176.93l0 2700z"/>
   </g>
   <g>
    <path class="fil0 str0" d="M6181.85 13541.97l0 400 -640 0 0 -400c1060.86,-155.98 2139.13,-155.95 3200,0l0 400 -640 0 0 -400 -640 0 0 400 -640 0 0 -400 -640 0z"/>
    <path class="fil0 str0" d="M5541.85 13225.49l0 -607.14 640 0 0 400 640 0 0 -400 640 0 0 400 640 0 0 -400 640 0 0 607.14c-1061.98,-142.86 -2138.03,-142.88 -3200,0z"/>
    <polygon class="fil0 str0" points="8741.85,10740.5 8741.85,12307.48 5541.85,12307.48 5541.85,10740.5 6181.85,10740.5 6181.85,11140.5 6821.85,11140.5 6821.85,10740.5 7461.85,10740.5 7461.85,11140.5 8101.85,11140.5 8101.85,10740.5 "/>
   </g>
  </g>
  <g id="_1660572765168">
   <g>
    <path class="fil0 str0" d="M6181.85 17150.8l0 400 -640 0 0 -400c1060.86,-155.98 2139.13,-155.95 3200,0l0 400 -640 0 0 -400 -640 0 0 400 -640 0 0 -400 -640 0z"/>
    <path class="fil0 str0" d="M5541.85 16834.32l0 -607.14 640 0 0 400 640 0 0 -400 640 0 0 400 640 0 0 -400 640 0 0 607.14c-1061.98,-142.86 -2138.03,-142.88 -3200,0z"/>
    <polygon class="fil0 str0" points="8741.85,14349.33 8741.85,15916.31 5541.85,15916.31 5541.85,14349.33 6181.85,14349.33 6181.85,14749.33 6821.85,14749.33 6821.85,14349.33 7461.85,14349.33 7461.85,14749.33 8101.85,14749.33 8101.85,14349.33 "/>
   </g>
   <g>
    <path class="fil0 str0" d="M3470.61 19515.16c0,-593.71 -481.29,-1075 -1075,-1075 -593.7,0 -1075,481.29 -1075,1075 0,593.7 481.29,1075 1075,1075 593.7,0 1075,-481.29 1075,-1074.99z"/>
    <path class="fil0 str0" d="M448.11 19820.16c0.01,15.18 -9.12,28.87 -23.14,34.68 -14.02,5.82 -30.16,2.62 -40.9,-8.11 -10.74,-10.72 -13.96,-26.86 -8.16,-40.88 5.8,-14.03 19.52,-23.18 34.7,-23.19l0 -535c-15.18,0.01 -28.87,-9.12 -34.68,-23.14 -5.82,-14.02 -2.62,-30.16 8.11,-40.9 10.72,-10.74 26.86,-13.96 40.88,-8.16 14.03,5.8 23.18,19.52 23.19,34.7l695 0c-0.01,-15.18 9.12,-28.87 23.14,-34.68 14.02,-5.82 30.16,-2.62 40.9,8.11 10.74,10.72 13.96,26.86 8.16,40.88 -5.8,14.03 -19.52,23.18 -34.7,23.19l0 553.13c16.52,-7.21 35.84,-1.65 46,13.24 10.15,14.9 8.28,34.91 -4.47,47.66 -12.74,12.75 -32.76,14.62 -47.65,4.47 -14.9,-10.16 -20.46,-29.48 -13.25,-46l-713.13 0z"/>
    <path class="fil0 str0" d="M4380.61 19782.66c15.18,-0.01 28.87,9.12 34.68,23.14 5.82,14.02 2.62,30.16 -8.11,40.9 -10.72,10.74 -26.86,13.96 -40.88,8.16 -14.03,-5.8 -23.18,-19.52 -23.19,-34.7l-713.13 0c7.21,16.52 1.65,35.84 -13.24,46 -14.9,10.15 -34.91,8.28 -47.66,-4.47 -12.75,-12.74 -14.62,-32.76 -4.47,-47.65 10.16,-14.9 29.48,-20.46 46,-13.25l0 -553.13c-15.18,0.01 -28.87,-9.12 -34.68,-23.14 -5.82,-14.02 -2.62,-30.16 8.11,-40.9 10.72,-10.74 26.86,-13.96 40.88,-8.16 14.03,5.8 23.18,19.52 23.19,34.7l695 0c-0.01,-15.18 9.12,-28.87 23.14,-34.68 14.02,-5.82 30.16,-2.62 40.9,8.11 10.74,10.72 13.96,26.86 8.16,40.88 -5.8,14.03 -19.52,23.18 -34.7,23.19l0 535z"/>
    <path class="fil0 str0" d="M4795.61 20865.16c0.04,66.26 -26.24,129.83 -73.07,176.71 -46.82,46.89 -110.67,73.25 -176.93,73.29l-165 0 0 -640 -770 0 0 640 -2430 0 0 -640 -770 0 0 640 -165 0c-66.26,0.04 -129.83,-26.24 -176.71,-73.07 -46.89,-46.82 -73.25,-110.67 -73.29,-176.93l0 -2700c-0.04,-66.26 26.24,-129.83 73.07,-176.71 46.82,-46.89 110.67,-73.25 176.93,-73.29l165 0 0 640 770 0 0 -640 2430 0 0 640 770 0 0 -640 165 0c66.26,-0.04 129.83,26.24 176.71,73.07 46.89,46.82 73.25,110.67 73.29,176.93l0 2700z"/>
   </g>
   <g>
    <path class="fil0 str0" d="M6181.85 20715.17l0 400 -640 0 0 -400c1060.86,-155.98 2139.13,-155.95 3200,0l0 400 -640 0 0 -400 -640 0 0 400 -640 0 0 -400 -640 0z"/>
    <path class="fil0 str0" d="M5541.85 20398.69l0 -607.14 640 0 0 400 640 0 0 -400 640 0 0 400 640 0 0 -400 640 0 0 607.14c-1061.98,-142.86 -2138.03,-142.88 -3200,0z"/>
    <polygon class="fil0 str0" points="8741.85,17913.7 8741.85,19480.68 5541.85,19480.68 5541.85,17913.7 6181.85,17913.7 6181.85,18313.7 6821.85,18313.7 6821.85,17913.7 7461.85,17913.7 7461.85,18313.7 8101.85,18313.7 8101.85,17913.7 "/>
   </g>
  </g>
  <g id="_1660572760944">
   <g>
    <path class="fil0 str0" d="M6181.85 24324l0 400 -640 0 0 -400c1060.86,-155.98 2139.13,-155.95 3200,0l0 400 -640 0 0 -400 -640 0 0 400 -640 0 0 -400 -640 0z"/>
    <path class="fil0 str0" d="M5541.85 24007.52l0 -607.14 640 0 0 400 640 0 0 -400 640 0 0 400 640 0 0 -400 640 0 0 607.14c-1061.98,-142.86 -2138.03,-142.88 -3200,0z"/>
    <polygon class="fil0 str0" points="8741.85,21522.53 8741.85,23089.51 5541.85,23089.51 5541.85,21522.53 6181.85,21522.53 6181.85,21922.53 6821.85,21922.53 6821.85,21522.53 7461.85,21522.53 7461.85,21922.53 8101.85,21922.53 8101.85,21522.53 "/>
   </g>
   <g>
    <path class="fil0 str0" d="M3470.61 26688.36c0,-593.71 -481.29,-1075 -1075,-1075 -593.7,0 -1075,481.29 -1075,1075 0,593.7 481.29,1075 1075,1075 593.7,0 1075,-481.29 1075,-1074.99z"/>
    <path class="fil0 str0" d="M448.11 26993.36c0.01,15.18 -9.12,28.87 -23.14,34.68 -14.02,5.82 -30.16,2.62 -40.9,-8.11 -10.74,-10.72 -13.96,-26.86 -8.16,-40.88 5.8,-14.03 19.52,-23.18 34.7,-23.19l0 -535c-15.18,0.01 -28.87,-9.12 -34.68,-23.14 -5.82,-14.02 -2.62,-30.16 8.11,-40.9 10.72,-10.74 26.86,-13.96 40.88,-8.16 14.03,5.8 23.18,19.52 23.19,34.7l695 0c-0.01,-15.18 9.12,-28.87 23.14,-34.68 14.02,-5.82 30.16,-2.62 40.9,8.11 10.74,10.72 13.96,26.86 8.16,40.88 -5.8,14.03 -19.52,23.18 -34.7,23.19l0 553.13c16.52,-7.21 35.84,-1.65 46,13.24 10.15,14.9 8.28,34.91 -4.47,47.66 -12.74,12.75 -32.76,14.62 -47.65,4.47 -14.9,-10.16 -20.46,-29.48 -13.25,-46l-713.13 0z"/>
    <path class="fil0 str0" d="M4380.61 26955.86c15.18,-0.01 28.87,9.12 34.68,23.14 5.82,14.02 2.62,30.16 -8.11,40.9 -10.72,10.74 -26.86,13.96 -40.88,8.16 -14.03,-5.8 -23.18,-19.52 -23.19,-34.7l-713.13 0c7.21,16.52 1.65,35.84 -13.24,46 -14.9,10.15 -34.91,8.28 -47.66,-4.47 -12.75,-12.74 -14.62,-32.76 -4.47,-47.65 10.16,-14.9 29.48,-20.46 46,-13.25l0 -553.13c-15.18,0.01 -28.87,-9.12 -34.68,-23.14 -5.82,-14.02 -2.62,-30.16 8.11,-40.9 10.72,-10.74 26.86,-13.96 40.88,-8.16 14.03,5.8 23.18,19.52 23.19,34.7l695 0c-0.01,-15.18 9.12,-28.87 23.14,-34.68 14.02,-5.82 30.16,-2.62 40.9,8.11 10.74,10.72 13.96,26.86 8.16,40.88 -5.8,14.03 -19.52,23.18 -34.7,23.19l0 535z"/>
    <path class="fil0 str0" d="M4795.61 28038.36c0.04,66.26 -26.24,129.83 -73.07,176.71 -46.82,46.89 -110.67,73.25 -176.93,73.29l-165 0 0 -640 -770 0 0 640 -2430 0 0 -640 -770 0 0 640 -165 0c-66.26,0.04 -129.83,-26.24 -176.71,-73.07 -46.89,-46.82 -73.25,-110.67 -73.29,-176.93l0 -2700c-0.04,-66.26 26.24,-129.83 73.07,-176.71 46.82,-46.89 110.67,-73.25 176.93,-73.29l165 0 0 640 770 0 0 -640 2430 0 0 640 770 0 0 -640 165 0c66.26,-0.04 129.83,26.24 176.71,73.07 46.89,46.82 73.25,110.67 73.29,176.93l0 2700z"/>
   </g>
   <g>
    <path class="fil0 str0" d="M6181.85 27888.37l0 400 -640 0 0 -400c1060.86,-155.98 2139.13,-155.95 3200,0l0 400 -640 0 0 -400 -640 0 0 400 -640 0 0 -400 -640 0z"/>
    <path class="fil0 str0" d="M5541.85 27571.89l0 -607.14 640 0 0 400 640 0 0 -400 640 0 0 400 640 0 0 -400 640 0 0 607.14c-1061.98,-142.86 -2138.03,-142.88 -3200,0z"/>
    <polygon class="fil0 str0" points="8741.85,25086.9 8741.85,26653.88 5541.85,26653.88 5541.85,25086.9 6181.85,25086.9 6181.85,25486.9 6821.85,25486.9 6821.85,25086.9 7461.85,25086.9 7461.85,25486.9 8101.85,25486.9 8101.85,25086.9 "/>
   </g>
  </g>
  <g id="_1660572750096">
   <g>
    <polygon class="fil0 str0" points="9488.39,21171.8 9806.72,21171.8 9806.72,21571.8 10170.06,21571.8 10170.06,21171.8 10473.39,21171.8 10473.39,21571.8 10903.39,21571.8 10903.39,20931.8 11673.39,20931.8 11673.39,21571.8 14103.39,21571.8 14103.39,20931.8 14873.39,20931.8 14873.39,21571.8 15303.39,21571.8 15303.39,21171.8 15606.72,21171.8 15606.72,21571.8 15970.06,21571.8 15970.06,21171.8 16288.39,21171.8 16288.39,18771.8 15970.06,18771.8 15970.06,18371.8 15606.72,18371.8 15606.72,18771.8 15303.39,18771.8 15303.39,18371.8 14873.39,18371.8 14873.39,19011.8 14103.39,19011.8 14103.39,18371.8 11673.39,18371.8 11673.39,19011.8 10903.39,19011.8 10903.39,18371.8 10473.39,18371.8 10473.39,18771.8 10170.06,18771.8 10170.06,18371.8 9806.72,18371.8 9806.72,18771.8 9488.39,18771.8 "/>
    <path class="fil0 str0" d="M14835.89 20276.8c-0.01,15.18 9.12,28.87 23.14,34.68 14.02,5.82 30.16,2.62 40.9,-8.11 10.74,-10.72 13.96,-26.86 8.16,-40.88 -5.8,-14.03 -19.52,-23.18 -34.7,-23.19l0 -535c15.18,0.01 28.87,-9.12 34.68,-23.14 5.82,-14.02 2.62,-30.16 -8.11,-40.9 -10.72,-10.74 -26.86,-13.96 -40.88,-8.16 -14.03,5.8 -23.18,19.52 -23.19,34.7l-695 0c0.01,-15.18 -9.12,-28.87 -23.14,-34.68 -14.02,-5.82 -30.16,-2.62 -40.9,8.11 -10.74,10.72 -13.96,26.86 -8.16,40.88 5.8,14.03 19.52,23.18 34.7,23.19l0 553.13c-16.52,-7.21 -35.84,-1.65 -46,13.24 -10.15,14.9 -8.28,34.91 4.47,47.66 12.74,12.75 32.76,14.62 47.65,4.47 14.9,-10.16 20.46,-29.48 13.25,-46l713.13 0z"/>
    <path class="fil0 str0" d="M11813.39 19971.8c0,-593.71 481.29,-1075 1075,-1075 593.7,0 1075,481.29 1075,1075 0,593.7 -481.29,1075 -1075,1075 -593.7,0 -1075,-481.29 -1075,-1074.99z"/>
    <path class="fil0 str0" d="M10903.39 20239.3c-15.18,-0.01 -28.87,9.12 -34.68,23.14 -5.82,14.02 -2.62,30.16 8.11,40.9 10.72,10.74 26.86,13.96 40.88,8.16 14.03,-5.8 23.18,-19.52 23.19,-34.7l713.13 0c-7.21,16.52 -1.65,35.84 13.24,46 14.9,10.15 34.91,8.28 47.66,-4.47 12.75,-12.74 14.62,-32.76 4.47,-47.65 -10.16,-14.9 -29.48,-20.46 -46,-13.25l0 -553.13c15.18,0.01 28.87,-9.12 34.68,-23.14 5.82,-14.02 2.62,-30.16 -8.11,-40.9 -10.72,-10.74 -26.86,-13.96 -40.88,-8.16 -14.03,5.8 -23.18,19.52 -23.19,34.7l-695 0c0.01,-15.18 -9.12,-28.87 -23.14,-34.68 -14.02,-5.82 -30.16,-2.62 -40.9,8.11 -10.74,10.72 -13.96,26.86 -8.16,40.88 5.8,14.03 19.52,23.18 34.7,23.19l0 535z"/>
   </g>
   <g>
    <polygon class="fil0 str0" points="15303.39,18049.54 15303.39,17649.54 15606.72,17649.54 15606.72,18049.54 15970.06,18049.54 15970.06,17649.54 16288.39,17649.54 16288.39,15249.54 15970.06,15249.54 15970.06,14849.54 15606.72,14849.54 15606.72,15249.54 15303.39,15249.54 15303.39,14849.54 14873.39,14849.54 14873.39,15489.54 14503.39,15489.54 14503.39,14849.54 11273.39,14849.54 11273.39,15489.54 10903.39,15489.54 10903.39,14849.54 10473.39,14849.54 10473.39,15249.54 10170.06,15249.54 10170.06,14849.54 9806.72,14849.54 9806.72,15249.54 9488.39,15249.54 9488.39,17649.54 9806.72,17649.54 9806.72,18049.54 10170.06,18049.54 10170.06,17649.54 10473.39,17649.54 10473.39,18049.54 10903.39,18049.54 10903.39,17409.54 11273.39,17409.54 11273.39,18049.54 14503.39,18049.54 14503.39,17409.54 14873.39,17409.54 14873.39,18049.54 "/>
    <path class="fil0 str0" d="M14503.39 16735.17c-16.52,-7.21 -35.84,-1.65 -46,13.24 -10.15,14.9 -8.28,34.91 4.47,47.66 12.74,12.75 32.76,14.62 47.65,4.47 14.9,-10.16 20.46,-29.48 13.25,-46l331.26 0c-7.21,16.52 -1.65,35.84 13.24,46 14.9,10.15 34.91,8.28 47.66,-4.47 12.75,-12.74 14.62,-32.76 4.47,-47.65 -10.16,-14.9 -29.48,-20.46 -46,-13.25l0 -571.26c16.52,7.21 35.84,1.65 46,-13.24 10.15,-14.9 8.28,-34.91 -4.47,-47.66 -12.74,-12.75 -32.76,-14.62 -47.65,-4.47 -14.9,10.16 -20.46,29.48 -13.25,46l-331.26 0c7.21,-16.52 1.65,-35.84 -13.24,-46 -14.9,-10.15 -34.91,-8.28 -47.66,4.47 -12.75,12.74 -14.62,32.76 -4.47,47.65 10.16,14.9 29.48,20.46 46,13.25l0 571.26z"/>
    <path class="fil0 str0" d="M11273.39 16163.91c16.52,7.21 35.84,1.65 46,-13.24 10.15,-14.9 8.28,-34.91 -4.47,-47.66 -12.74,-12.75 -32.76,-14.62 -47.65,-4.47 -14.9,10.16 -20.46,29.48 -13.25,46l-331.26 0c7.21,-16.52 1.65,-35.84 -13.24,-46 -14.9,-10.15 -34.91,-8.28 -47.66,4.47 -12.75,12.74 -14.62,32.76 -4.47,47.65 10.16,14.9 29.48,20.46 46,13.25l0 571.26c-16.52,-7.21 -35.84,-1.65 -46,13.24 -10.15,14.9 -8.28,34.91 4.47,47.66 12.74,12.75 32.76,14.62 47.65,4.47 14.9,-10.16 20.46,-29.48 13.25,-46l331.26 0c-7.21,16.52 -1.65,35.84 13.24,46 14.9,10.15 34.91,8.28 47.66,-4.47 12.75,-12.74 14.62,-32.76 4.47,-47.65 -10.16,-14.9 -29.48,-20.46 -46,-13.25l0 -571.26z"/>
    <path class="fil0 str0" d="M11813.39 16449.54c0,-593.71 481.29,-1075 1075,-1075 593.7,0 1075,481.29 1075,1075 0,593.7 -481.29,1075 -1075,1075 -593.7,0 -1075,-481.29 -1075,-1074.99z"/>
   </g>
   <g>
    <path class="fil0 str0" d="M19454.31 17651.01l0 400 640 0 0 -400c-1060.86,-155.98 -2139.13,-155.95 -3200,0l0 400 640 0 0 -400 640 0 0 400 640 0 0 -400 640 0z"/>
    <path class="fil0 str0" d="M20094.31 17334.53l0 -607.14 -640 0 0 400 -640 0 0 -400 -640 0 0 400 -640 0 0 -400 -640 0 0 607.14c1061.98,-142.86 2138.03,-142.88 3200,0z"/>
    <polygon class="fil0 str0" points="16894.31,14849.54 16894.31,16416.52 20094.31,16416.52 20094.31,14849.54 19454.31,14849.54 19454.31,15249.54 18814.31,15249.54 18814.31,14849.54 18174.31,14849.54 18174.31,15249.54 17534.31,15249.54 17534.31,14849.54 "/>
   </g>
   <g>
    <path class="fil0 str0" d="M19454.31 21171.8l0 400 640 0 0 -400c-1060.86,-155.98 -2139.13,-155.95 -3200,0l0 400 640 0 0 -400 640 0 0 400 640 0 0 -400 640 0z"/>
    <path class="fil0 str0" d="M20094.31 20855.32l0 -607.14 -640 0 0 400 -640 0 0 -400 -640 0 0 400 -640 0 0 -400 -640 0 0 607.14c1061.98,-142.86 2138.03,-142.88 3200,0z"/>
    <polygon class="fil0 str0" points="16894.31,18370.33 16894.31,19937.31 20094.31,19937.31 20094.31,18370.33 19454.31,18370.33 19454.31,18770.33 18814.31,18770.33 18814.31,18370.33 18174.31,18370.33 18174.31,18770.33 17534.31,18770.33 17534.31,18370.33 "/>
   </g>
   <g>
    <path class="fil0 str0" d="M21357.39 20876.8c107.7,0 195,87.3 195,195 0,107.7 -87.3,195 -195,195 -107.69,0 -195,-87.3 -195,-195 0,-107.69 87.3,-195 195,-195z"/>
    <polygon class="fil0 str0" points="20348.9,20905.13 20748.9,20905.13 20748.9,21238.47 20348.9,21238.47 20348.9,21571.8 22365.88,21571.8 22365.88,21238.47 21965.88,21238.47 21965.88,20905.13 22365.88,20905.13 22365.88,20571.8 20348.9,20571.8 "/>
   </g>
   <g>
    <path class="fil0 str0" d="M21357.39 19588.29c107.7,0 195,87.3 195,195 0,107.7 -87.3,195 -195,195 -107.69,0 -195,-87.3 -195,-195 0,-107.69 87.3,-195 195,-195z"/>
    <polygon class="fil0 str0" points="20348.9,19616.62 20748.9,19616.62 20748.9,19949.96 20348.9,19949.96 20348.9,20283.29 22365.88,20283.29 22365.88,19949.96 21965.88,19949.96 21965.88,19616.62 22365.88,19616.62 22365.88,19283.29 20348.9,19283.29 "/>
   </g>
   <g>
    <path class="fil0 str0" d="M21357.39 18339.51c107.7,0 195,87.3 195,195 0,107.7 -87.3,195 -195,195 -107.69,0 -195,-87.3 -195,-195 0,-107.69 87.3,-195 195,-195z"/>
    <polygon class="fil0 str0" points="20348.9,18367.84 20748.9,18367.84 20748.9,18701.18 20348.9,18701.18 20348.9,19034.51 22365.88,19034.51 22365.88,18701.18 21965.88,18701.18 21965.88,18367.84 22365.88,18367.84 22365.88,18034.51 20348.9,18034.51 "/>
   </g>
   <g>
    <path class="fil0 str0" d="M21357.39 17051c107.7,0 195,87.3 195,195 0,107.7 -87.3,195 -195,195 -107.69,0 -195,-87.3 -195,-195 0,-107.69 87.3,-195 195,-195z"/>
    <polygon class="fil0 str0" points="20348.9,17079.33 20748.9,17079.33 20748.9,17412.67 20348.9,17412.67 20348.9,17746 22365.88,17746 22365.88,17412.67 21965.88,17412.67 21965.88,17079.33 22365.88,17079.33 22365.88,16746 20348.9,16746 "/>
   </g>
  </g>
  <g id="_1660779147168">
   <g>
    <polygon class="fil0 str0" points="9488.39,28530.79 9806.72,28530.79 9806.72,28930.79 10170.06,28930.79 10170.06,28530.79 10473.39,28530.79 10473.39,28930.79 10903.39,28930.79 10903.39,28290.79 11673.39,28290.79 11673.39,28930.79 14103.39,28930.79 14103.39,28290.79 14873.39,28290.79 14873.39,28930.79 15303.39,28930.79 15303.39,28530.79 15606.72,28530.79 15606.72,28930.79 15970.06,28930.79 15970.06,28530.79 16288.39,28530.79 16288.39,26130.79 15970.06,26130.79 15970.06,25730.79 15606.72,25730.79 15606.72,26130.79 15303.39,26130.79 15303.39,25730.79 14873.39,25730.79 14873.39,26370.79 14103.39,26370.79 14103.39,25730.79 11673.39,25730.79 11673.39,26370.79 10903.39,26370.79 10903.39,25730.79 10473.39,25730.79 10473.39,26130.79 10170.06,26130.79 10170.06,25730.79 9806.72,25730.79 9806.72,26130.79 9488.39,26130.79 "/>
    <path class="fil0 str0" d="M14835.89 27635.79c-0.01,15.18 9.12,28.87 23.14,34.68 14.02,5.82 30.16,2.62 40.9,-8.11 10.74,-10.72 13.96,-26.86 8.16,-40.88 -5.8,-14.03 -19.52,-23.18 -34.7,-23.19l0 -535c15.18,0.01 28.87,-9.12 34.68,-23.14 5.82,-14.02 2.62,-30.16 -8.11,-40.9 -10.72,-10.74 -26.86,-13.96 -40.88,-8.16 -14.03,5.8 -23.18,19.52 -23.19,34.7l-695 0c0.01,-15.18 -9.12,-28.87 -23.14,-34.68 -14.02,-5.82 -30.16,-2.62 -40.9,8.11 -10.74,10.72 -13.96,26.86 -8.16,40.88 5.8,14.03 19.52,23.18 34.7,23.19l0 553.13c-16.52,-7.21 -35.84,-1.65 -46,13.24 -10.15,14.9 -8.28,34.91 4.47,47.66 12.74,12.75 32.76,14.62 47.65,4.47 14.9,-10.16 20.46,-29.48 13.25,-46l713.13 0z"/>
    <path class="fil0 str0" d="M11813.39 27330.79c0,-593.71 481.29,-1075 1075,-1075 593.7,0 1075,481.29 1075,1075 0,593.7 -481.29,1075 -1075,1075 -593.7,0 -1075,-481.29 -1075,-1074.99z"/>
    <path class="fil0 str0" d="M10903.39 27598.29c-15.18,-0.01 -28.87,9.12 -34.68,23.14 -5.82,14.02 -2.62,30.16 8.11,40.9 10.72,10.74 26.86,13.96 40.88,8.16 14.03,-5.8 23.18,-19.52 23.19,-34.7l713.13 0c-7.21,16.52 -1.65,35.84 13.24,46 14.9,10.15 34.91,8.28 47.66,-4.47 12.75,-12.74 14.62,-32.76 4.47,-47.65 -10.16,-14.9 -29.48,-20.46 -46,-13.25l0 -553.13c15.18,0.01 28.87,-9.12 34.68,-23.14 5.82,-14.02 2.62,-30.16 -8.11,-40.9 -10.72,-10.74 -26.86,-13.96 -40.88,-8.16 -14.03,5.8 -23.18,19.52 -23.19,34.7l-695 0c0.01,-15.18 -9.12,-28.87 -23.14,-34.68 -14.02,-5.82 -30.16,-2.62 -40.9,8.11 -10.74,10.72 -13.96,26.86 -8.16,40.88 5.8,14.03 19.52,23.18 34.7,23.19l0 535z"/>
   </g>
   <g>
    <polygon class="fil0 str0" points="15303.39,25408.53 15303.39,25008.53 15606.72,25008.53 15606.72,25408.53 15970.06,25408.53 15970.06,25008.53 16288.39,25008.53 16288.39,22608.53 15970.06,22608.53 15970.06,22208.53 15606.72,22208.53 15606.72,22608.53 15303.39,22608.53 15303.39,22208.53 14873.39,22208.53 14873.39,22848.53 14503.39,22848.53 14503.39,22208.53 11273.39,22208.53 11273.39,22848.53 10903.39,22848.53 10903.39,22208.53 10473.39,22208.53 10473.39,22608.53 10170.06,22608.53 10170.06,22208.53 9806.72,22208.53 9806.72,22608.53 9488.39,22608.53 9488.39,25008.53 9806.72,25008.53 9806.72,25408.53 10170.06,25408.53 10170.06,25008.53 10473.39,25008.53 10473.39,25408.53 10903.39,25408.53 10903.39,24768.53 11273.39,24768.53 11273.39,25408.53 14503.39,25408.53 14503.39,24768.53 14873.39,24768.53 14873.39,25408.53 "/>
    <path class="fil0 str0" d="M14503.39 24094.16c-16.52,-7.21 -35.84,-1.65 -46,13.24 -10.15,14.9 -8.28,34.91 4.47,47.66 12.74,12.75 32.76,14.62 47.65,4.47 14.9,-10.16 20.46,-29.48 13.25,-46l331.26 0c-7.21,16.52 -1.65,35.84 13.24,46 14.9,10.15 34.91,8.28 47.66,-4.47 12.75,-12.74 14.62,-32.76 4.47,-47.65 -10.16,-14.9 -29.48,-20.46 -46,-13.25l0 -571.26c16.52,7.21 35.84,1.65 46,-13.24 10.15,-14.9 8.28,-34.91 -4.47,-47.66 -12.74,-12.75 -32.76,-14.62 -47.65,-4.47 -14.9,10.16 -20.46,29.48 -13.25,46l-331.26 0c7.21,-16.52 1.65,-35.84 -13.24,-46 -14.9,-10.15 -34.91,-8.28 -47.66,4.47 -12.75,12.74 -14.62,32.76 -4.47,47.65 10.16,14.9 29.48,20.46 46,13.25l0 571.26z"/>
    <path class="fil0 str0" d="M11273.39 23522.9c16.52,7.21 35.84,1.65 46,-13.24 10.15,-14.9 8.28,-34.91 -4.47,-47.66 -12.74,-12.75 -32.76,-14.62 -47.65,-4.47 -14.9,10.16 -20.46,29.48 -13.25,46l-331.26 0c7.21,-16.52 1.65,-35.84 -13.24,-46 -14.9,-10.15 -34.91,-8.28 -47.66,4.47 -12.75,12.74 -14.62,32.76 -4.47,47.65 10.16,14.9 29.48,20.46 46,13.25l0 571.26c-16.52,-7.21 -35.84,-1.65 -46,13.24 -10.15,14.9 -8.28,34.91 4.47,47.66 12.74,12.75 32.76,14.62 47.65,4.47 14.9,-10.16 20.46,-29.48 13.25,-46l331.26 0c-7.21,16.52 -1.65,35.84 13.24,46 14.9,10.15 34.91,8.28 47.66,-4.47 12.75,-12.74 14.62,-32.76 4.47,-47.65 -10.16,-14.9 -29.48,-20.46 -46,-13.25l0 -571.26z"/>
    <path class="fil0 str0" d="M11813.39 23808.53c0,-593.71 481.29,-1075 1075,-1075 593.7,0 1075,481.29 1075,1075 0,593.7 -481.29,1075 -1075,1075 -593.7,0 -1075,-481.29 -1075,-1074.99z"/>
   </g>
   <g>
    <path class="fil0 str0" d="M19454.31 25010l0 400 640 0 0 -400c-1060.86,-155.98 -2139.13,-155.95 -3200,0l0 400 640 0 0 -400 640 0 0 400 640 0 0 -400 640 0z"/>
    <path class="fil0 str0" d="M20094.31 24693.52l0 -607.14 -640 0 0 400 -640 0 0 -400 -640 0 0 400 -640 0 0 -400 -640 0 0 607.14c1061.98,-142.86 2138.03,-142.88 3200,0z"/>
    <polygon class="fil0 str0" points="16894.31,22208.53 16894.31,23775.51 20094.31,23775.51 20094.31,22208.53 19454.31,22208.53 19454.31,22608.53 18814.31,22608.53 18814.31,22208.53 18174.31,22208.53 18174.31,22608.53 17534.31,22608.53 17534.31,22208.53 "/>
   </g>
   <g>
    <path class="fil0 str0" d="M19454.31 28530.79l0 400 640 0 0 -400c-1060.86,-155.98 -2139.13,-155.95 -3200,0l0 400 640 0 0 -400 640 0 0 400 640 0 0 -400 640 0z"/>
    <path class="fil0 str0" d="M20094.31 28214.31l0 -607.14 -640 0 0 400 -640 0 0 -400 -640 0 0 400 -640 0 0 -400 -640 0 0 607.14c1061.98,-142.86 2138.03,-142.88 3200,0z"/>
    <polygon class="fil0 str0" points="16894.31,25729.32 16894.31,27296.3 20094.31,27296.3 20094.31,25729.32 19454.31,25729.32 19454.31,26129.32 18814.31,26129.32 18814.31,25729.32 18174.31,25729.32 18174.31,26129.32 17534.31,26129.32 17534.31,25729.32 "/>
   </g>
   <g>
    <path class="fil0 str0" d="M21357.39 28235.79c107.7,0 195,87.3 195,195 0,107.7 -87.3,195 -195,195 -107.69,0 -195,-87.3 -195,-195 0,-107.69 87.3,-195 195,-195z"/>
    <polygon class="fil0 str0" points="20348.9,28264.12 20748.9,28264.12 20748.9,28597.46 20348.9,28597.46 20348.9,28930.79 22365.88,28930.79 22365.88,28597.46 21965.88,28597.46 21965.88,28264.12 22365.88,28264.12 22365.88,27930.79 20348.9,27930.79 "/>
   </g>
   <g>
    <path class="fil0 str0" d="M21357.39 26947.28c107.7,0 195,87.3 195,195 0,107.7 -87.3,195 -195,195 -107.69,0 -195,-87.3 -195,-195 0,-107.69 87.3,-195 195,-195z"/>
    <polygon class="fil0 str0" points="20348.9,26975.61 20748.9,26975.61 20748.9,27308.95 20348.9,27308.95 20348.9,27642.28 22365.88,27642.28 22365.88,27308.95 21965.88,27308.95 21965.88,26975.61 22365.88,26975.61 22365.88,26642.28 20348.9,26642.28 "/>
   </g>
   <g>
    <path class="fil0 str0" d="M21357.39 25698.5c107.7,0 195,87.3 195,195 0,107.7 -87.3,195 -195,195 -107.69,0 -195,-87.3 -195,-195 0,-107.69 87.3,-195 195,-195z"/>
    <polygon class="fil0 str0" points="20348.9,25726.83 20748.9,25726.83 20748.9,26060.17 20348.9,26060.17 20348.9,26393.5 22365.88,26393.5 22365.88,26060.17 21965.88,26060.17 21965.88,25726.83 22365.88,25726.83 22365.88,25393.5 20348.9,25393.5 "/>
   </g>
   <g>
    <path class="fil0 str0" d="M21357.39 24409.99c107.7,0 195,87.3 195,195 0,107.7 -87.3,195 -195,195 -107.69,0 -195,-87.3 -195,-195 0,-107.69 87.3,-195 195,-195z"/>
    <polygon class="fil0 str0" points="20348.9,24438.32 20748.9,24438.32 20748.9,24771.66 20348.9,24771.66 20348.9,25104.99 22365.88,25104.99 22365.88,24771.66 21965.88,24771.66 21965.88,24438.32 22365.88,24438.32 22365.88,24104.99 20348.9,24104.99 "/>
   </g>
  </g>
 </g>
</svg>
